<?xml version="1.0" standalone="no"?>
<!DOCTYPE svg PUBLIC "-//W3C//DTD SVG 1.1//EN" "http://www.w3.org/Graphics/SVG/1.1/DTD/svg11.dtd" >
<!--
2013-9-30: Created.
-->
<svg>
<metadata>
Created by iconfont
</metadata>
<defs>

<font id="iconfont" horiz-adv-x="1024" >
  <font-face
    font-family="iconfont"
    font-weight="500"
    font-stretch="normal"
    units-per-em="1024"
    ascent="896"
    descent="-128"
  />
    <missing-glyph />
    
    <glyph glyph-name="sousuo_2" unicode="&#59090;" d="M475.3 39.10000000000002C266 39.10000000000002 95.7 209.29999999999995 95.7 418.6S266 798.1 475.3 798.1s379.5-170.2 379.5-379.5-170.3-379.5-379.5-379.5z m0 675.9c-163.4 0-296.4-133-296.4-296.4s133-296.4 296.4-296.4c163.4 0 296.4 132.9 296.4 296.4S638.7 715 475.3 715zM475.3 199.89999999999998c-120.6 0-218.7 98.1-218.7 218.7 0 23 18.6 41.6 41.6 41.6s41.6-18.6 41.6-41.6c0-74.8 60.8-135.6 135.6-135.6 23 0 41.6-18.6 41.6-41.6-0.2-22.9-18.8-41.5-41.7-41.5zM885.6-23.700000000000045c-10.2 0-20.5 3.7-28.5 11.3L695.3 139.79999999999995c-16.7 15.7-17.5 42-1.8 58.8 15.8 16.7 42.1 17.5 58.8 1.8l161.9-152.2c16.7-15.7 17.5-42 1.8-58.8-8.3-8.7-19.3-13.1-30.4-13.1z"  horiz-adv-x="1024" />

    
    <glyph glyph-name="jiantou" unicode="&#58913;" d="M693.333333 384c0-14.933333-4.266667-29.866667-14.933333-40.533333l-234.666667-277.333334c-23.466667-27.733333-64-29.866667-89.6-8.533333-27.733333 23.466667-29.866667 64-8.533333 89.6L546.133333 384l-200.533333 236.8c-23.466667 27.733333-19.2 68.266667 8.533333 89.6 27.733333 23.466667 68.266667 19.2 89.6-8.533333l234.666667-277.333334c10.666667-10.666667 14.933333-25.6 14.933333-40.533333z"  horiz-adv-x="1024" />

    
    <glyph glyph-name="dictionary" unicode="&#59092;" d="M1448.039551 360.528539c16.395506 9.526652 24.599011 21.998742 24.633528 34.482337L1472.719101 409.542472c0-0.36818-0.034517-0.73636-0.046022-1.104539 0.529258 13.012854-7.777798 26.140764-24.978697 36.070112L693.650697 879.846112c-33.216719 19.191371-86.901933 19.179865-119.88854 0L0.138067 546.505348 0 378.557843l874.484494-504.797483v14.531595-14.531595l573.44 333.340764c16.384 9.526652 24.599011 21.998742 24.633528 34.482337l0.046023 14.52009c0-0.36818-0.034517-0.724854-0.046023-1.093034 0.529258 13.001348-7.789303 26.129258-24.990202 36.058607l-28.476404 16.453033 0.046022 36.20818 28.902113 16.798202zM874.484494-111.708045v-14.531595L0 378.557843l0.046022 14.531595zM1447.56782 291.069124c33.228225-19.179865 33.400809-50.268045 0.391191-69.447911L874.484494-111.708045 0.046022 393.089438 573.62409 726.407191c33.021124 19.179865 86.683326 19.179865 119.91155 0l754.03218-435.349573zM1394.549933 354.315506L864.117933 46.103011v-138.907326l530.259415 308.212495c16.384 9.526652 24.599011 21.998742 24.633528 34.482337l0.18409 138.907326c-0.046022-12.495101-8.249528-24.967191-24.645033-34.493843zM1447.694382 444.508045c33.216719-19.179865 33.377798-50.279551 0.391191-69.459416L874.484494 41.719371 0.149573 546.505348 573.750652 879.857618c32.998112 19.16836 86.683326 19.179865 119.900045 0l754.043685-435.349573zM0.149573 546.505348L0 378.557843l874.484494-504.797483V41.719371zM1448.039551 360.528539c16.395506 9.526652 24.599011 21.998742 24.633528 34.482337L1472.719101 409.542472c-0.034517-12.495101-8.238022-24.967191-24.633528-34.493843L874.484494 41.719371v-167.959011l573.44 333.340764c16.384 9.526652 24.599011 21.998742 24.633528 34.482337l0.046023 14.52009c-0.034517-12.483596-8.249528-24.955685-24.645034-34.482338L885.725483-105.172854V33.722966l562.314068 326.805573zM1000.758652 54.55964l-62.061304-35.84 0.379686-134.06346 30.950112 44.848899 31.122697-9.020405-0.379686 134.074966M565.754247 397.588135l-31.134202 33.308764 56.987326-18.282427-25.853124-15.026337m134.615731 15.394517L507.857978 467.013034l-35.667416-20.733124 93.701753-111.443416 39.866966 23.172315-19.617079 21.078292 37.864989 22.010247 36.668405-11.171955 39.682876 23.057259M773.246562 499.953618l-34.286742 19.801169-62.705618-36.438293 34.286742-19.789663 62.705618 36.426787M985.088 578.444944l-34.286742 19.789663-63.718112-37.025079-17.120359 82.334202-29.247281 16.890248-108.62454-63.119821 34.286742-19.801168 63.522517 36.921528 13.162427-84.681348 29.224269-16.867236 112.812585 65.559011"  horiz-adv-x="1472" />

    
    <glyph glyph-name="mianxingbaoyu" unicode="&#58944;" d="M248.5 125.2c-3 0-6 0.7-8.9 2.1-9.9 4.9-13.9 16.9-9 26.8l32.9 65.9c4.9 9.9 16.9 13.9 26.8 9 9.9-4.9 13.9-16.9 9-26.8l-32.9-65.9c-3.5-7-10.6-11.1-17.9-11.1zM529.9 202.2L497 136.3c-0.4-0.9-0.9-1.7-1.4-2.4-3.8-5.5-10-8.6-16.5-8.6-3 0-6 0.7-8.9 2.1-9.9 4.9-13.9 16.9-9 26.8l32.9 65.9c0.4 0.9 0.9 1.7 1.4 2.4 5.6 8.1 16.4 11 25.4 6.5 9.9-4.9 13.9-17 9-26.8zM363.8 42.8c-3 0-6 0.7-8.9 2.1-9.9 4.9-13.9 16.9-9 26.8l32.9 65.9c4.9 9.9 16.9 13.9 26.8 9 9.9-4.9 13.9-16.9 9-26.8l-32.9-65.9c-3.5-7-10.6-11.1-17.9-11.1zM100.2 42.8c-3 0-6.1 0.7-8.9 2.1-9.9 4.9-13.9 17-8.9 26.8l33 65.9c4.9 9.9 17 13.9 26.8 8.9 9.9-4.9 13.9-17 8.9-26.8l-33-65.9c-3.5-7-10.6-11-17.9-11zM645.2 119.8l-32.9-65.9c-3.5-7-10.6-11.1-17.9-11.1-3 0-6 0.7-8.9 2.1-9.9 4.9-13.9 16.9-9 26.8l32.9 65.9c4.9 9.9 16.9 13.9 26.8 9 9.9-4.9 13.9-16.9 9-26.8zM875.8 119.8l-33-65.9c-3.5-7-10.6-11-17.9-11-3 0-6.1 0.7-8.9 2.1-9.9 4.9-13.9 17-8.9 26.8l33 65.9c4.9 9.9 17 13.9 26.8 8.9s13.8-17 8.9-26.8zM760.5 202.1l-33-65.9c-3.5-7-10.6-11-17.9-11-3 0-6.1 0.7-8.9 2.1-9.9 4.9-13.9 17-8.9 26.8l33 65.9c4.9 9.9 17 13.9 26.8 8.9 9.8-4.9 13.8-16.9 8.9-26.8zM248.5-56c-3 0-6 0.7-8.9 2.1-9.9 4.9-13.9 16.9-9 26.8l32.9 65.9c4.9 9.9 16.9 13.9 26.8 9 9.9-4.9 13.9-16.9 9-26.8l-32.9-65.9c-3.5-7-10.6-11.1-17.9-11.1zM529.9 21L497-44.9c-0.4-0.9-0.9-1.7-1.4-2.4-3.8-5.5-10-8.6-16.5-8.6-3 0-6 0.7-8.9 2.1-9.9 4.9-13.9 16.9-9 26.8l32.9 65.9c0.4 0.9 0.9 1.7 1.4 2.4 5.6 8.1 16.4 11 25.4 6.5 9.9-4.9 13.9-17 9-26.8zM760.5 21l-33-65.9c-3.5-7-10.6-11-17.9-11-3 0-6.1 0.7-8.9 2.1-9.9 4.9-13.9 17-8.9 26.8l33 65.9c4.9 9.9 17 13.9 26.8 8.9s13.8-17 8.9-26.8zM943.8 466.2c0-106.4-86.5-192.9-192.9-192.9-2 0-3.8 0.1-5.4 0.2-0.9-0.1-1.9-0.2-2.9-0.2H265c-1 0-1.9 0.1-2.9 0.2-1.6-0.1-3.4-0.2-5.4-0.2-42.8 0-83 16.6-113.2 46.8-30.2 30.2-46.8 70.4-46.8 113.2s16.6 83 46.9 113.2c27.4 27.4 63.1 43.7 101.5 46.4 0 1.7-0.1 3.4-0.1 5.1 0 60.4 23.5 117.1 66.2 159.8 42.7 42.6 99.4 66.1 159.7 66.1 8.3 0 16.5-0.5 24.6-1.3 95.1-10.4 173.5-80 195.1-173.1 19.4 6.5 39.5 9.7 60.1 9.7 106.5 0 193.1-86.6 193.1-193zM943.8 466.2c0-106.4-86.5-192.9-192.9-192.9-2 0-3.8 0.1-5.4 0.2-0.9-0.1-1.9-0.2-2.9-0.2h-247V822.6c95.1-10.4 173.5-80 195.1-173.1 19.4 6.5 39.5 9.7 60.1 9.7 106.4 0 193-86.6 193-193zM529.9 21L497-44.9c-0.4-0.9-0.9-1.7-1.4-2.4v88.6c5.6 8.1 16.4 11 25.4 6.5 9.8-4.9 13.8-17 8.9-26.8zM529.9 202.2L497 136.3c-0.4-0.9-0.9-1.7-1.4-2.4v88.6c5.6 8.1 16.4 11 25.4 6.5 9.8-4.9 13.8-17 8.9-26.8zM645.2 119.8l-32.9-65.9c-3.5-7-10.6-11.1-17.9-11.1-3 0-6 0.7-8.9 2.1-9.9 4.9-13.9 16.9-9 26.8l32.9 65.9c4.9 9.9 16.9 13.9 26.8 9 9.9-4.9 13.9-16.9 9-26.8zM760.5 21l-33-65.9c-3.5-7-10.6-11-17.9-11-3 0-6.1 0.7-8.9 2.1-9.9 4.9-13.9 17-8.9 26.8l33 65.9c4.9 9.9 17 13.9 26.8 8.9s13.8-17 8.9-26.8zM760.5 202.1l-33-65.9c-3.5-7-10.6-11-17.9-11-3 0-6.1 0.7-8.9 2.1-9.9 4.9-13.9 17-8.9 26.8l33 65.9c4.9 9.9 17 13.9 26.8 8.9 9.8-4.9 13.8-16.9 8.9-26.8zM875.8 119.8l-33-65.9c-3.5-7-10.6-11-17.9-11-3 0-6.1 0.7-8.9 2.1-9.9 4.9-13.9 17-8.9 26.8l33 65.9c4.9 9.9 17 13.9 26.8 8.9s13.8-17 8.9-26.8z"  horiz-adv-x="1024" />

    
    <glyph glyph-name="mianxingdafeng" unicode="&#58946;" d="M595.8 590.1v-386.5l-137.3-53.5-102.7-40c-5.2-2.3-10.7-3.5-16.2-3.5-7.4 0-14.9 2.1-21.4 6.3-11.6 7.4-18.6 20-18.6 33.8V647c0 13.8 6.9 26.4 18.5 33.7 11.3 7.2 25.4 8.3 37.7 2.8l102.7-40 137.3-53.4zM226.2 650.2v-636.9c0-26.9-21.4-48.7-48.1-49.4h-1.3c-27.3 0-49.4 22.1-49.4 49.4V650.2h98.8zM261.6 719.2c0-28.4-14-53.6-35.5-69-13.6-9.7-30.1-15.5-48-15.8h-1.3c-18.4 0-35.4 5.8-49.3 15.8-21.5 15.4-35.5 40.6-35.5 69C92 766 130 804 176.8 804h1.3c46.2-0.7 83.5-38.4 83.5-84.8zM595.8 590.1v-386.5l-137.3-53.4V643.6zM291.6 207.4c-2 0-4 0.3-5.9 0.9l-65.4 20.3c-10.5 3.3-16.4 14.5-13.2 25 3.3 10.5 14.5 16.4 25 13.2l65.4-20.3c10.5-3.3 16.4-14.5 13.2-25-2.7-8.6-10.6-14.1-19.1-14.1z m-65.4 336.2c-8.5 0-16.4 5.5-19.1 14.1-3.3 10.5 2.6 21.8 13.2 25l65.4 20.3c10.5 3.3 21.8-2.6 25-13.2 3.3-10.5-2.6-21.8-13.2-25l-65.4-20.3c-1.9-0.6-3.9-0.9-5.9-0.9zM226.1 650.2h0.1v-636.9c0-26.9-21.4-48.7-48.1-49.4V804c46.2-0.7 83.5-38.4 83.5-84.8 0-28.4-14-53.6-35.5-69zM951.7 396.9c0-33.2-20-62.5-51-74.5l-41.1-16V487.5l41.1-16c31-12.1 51-41.3 51-74.6zM859.6 487.5v-181.2l-137.3-53.4v288zM595.8 590.1v-386.5l126.5 49.3v288z"  horiz-adv-x="1024" />

    
    <glyph glyph-name="mianxingdiwen" unicode="&#58947;" d="M435.3 318.8V716.7C435.3 764.8 396 804 348 804c-48.1 0-87.3-39.4-87.3-87.3V319c-59.9-31.5-100.9-94.4-100.9-166.8C159.8 48.2 244-36 348-36s188.2 84.3 188.2 188.2c-0.1 72.4-40.9 135.3-100.9 166.6zM372.9 258.7v453c0 13.8-11.2 25-25 25s-25-11.2-25-25v-453c-48.4-11.2-84.5-54.7-84.5-106.7 0-60.5 49.1-109.5 109.5-109.5S457.4 91.6 457.4 152c0.1 52-36 95.5-84.5 106.7zM850 476.9l-27.2-7.3c-2.2-0.6-4.2-1.7-5.9-3.1-0.1 0.1-0.2 0.1-0.3 0.2l-16.7 9.7 33.3 9c8 2.1 12.7 10.4 10.6 18.4-0.9 3.2-2.7 5.9-5.1 7.8 2.4 1.9 4.3 4.6 5.1 7.8 2.1 8-2.6 16.2-10.6 18.4l-33.3 8.9 16.8 9.7c0.1 0 0.2 0.1 0.2 0.2 1.7-1.5 3.7-2.6 5.9-3.2L850 546c1.3-0.4 2.6-0.5 3.9-0.5 6.6 0 12.7 4.4 14.5 11.1 2.1 8-2.6 16.2-10.6 18.4l-26.4 7.1 7.1 26.6c2.1 8-2.6 16.2-10.6 18.3-8 2.1-16.2-2.6-18.3-10.6l-7.3-27.4c-0.6-2.2-0.6-4.4-0.3-6.5-0.1-0.1-0.2-0.1-0.4-0.2l-16.7-9.7 8.9 33.2c2.1 8-2.6 16.2-10.6 18.4-3.2 0.8-6.4 0.6-9.2-0.5-0.5 3.1-1.8 6-4.2 8.4-5.9 5.9-15.4 5.9-21.2 0l-24.4-24.4V627v0.3c2.1 0.7 4 1.9 5.7 3.6l19.9 20.1c5.8 5.9 5.8 15.4-0.1 21.2-5.9 5.8-15.4 5.8-21.2-0.1L709 652.6 689.8 672c-5.8 5.9-15.3 5.9-21.2 0.1-5.9-5.8-5.9-15.3-0.1-21.2l19.9-20.1c1.7-1.7 3.7-2.9 5.8-3.6V607.6l-24.5 24.5c-5.9 5.9-15.4 5.9-21.2 0-2.4-2.4-3.8-5.3-4.2-8.4-2.8 1.1-6 1.3-9.1 0.5-8-2.1-12.8-10.4-10.6-18.4l8.9-33.3-16.8 9.7c-0.1 0-0.2 0.1-0.3 0.1 0.4 2.1 0.3 4.3-0.2 6.5l-7.3 27.4c-2.1 8-10.3 12.8-18.3 10.6-8-2.1-12.8-10.3-10.6-18.3l7.1-26.5-26.5-7.1c-8-2.1-12.7-10.4-10.6-18.4 1.8-6.7 7.9-11.1 14.5-11.1 1.3 0 2.6 0.2 3.9 0.5l27.2 7.3c2.3 0.6 4.3 1.7 5.9 3.2 0.1-0.1 0.2-0.1 0.2-0.2l16.8-9.7-33.3-8.9c-8-2.1-12.8-10.4-10.6-18.4 0.9-3.2 2.7-5.9 5.1-7.8-2.4-1.9-4.2-4.6-5.1-7.8-2.2-8 2.6-16.2 10.6-18.4l33.3-9-16.7-9.7c-0.1-0.1-0.2-0.1-0.3-0.2-1.6 1.4-3.6 2.5-5.9 3.1l-27.2 7.3c-8 2.1-16.2-2.6-18.4-10.6-2.1-8 2.6-16.2 10.6-18.4l26.5-7.1-7.1-26.4c-2.1-8 2.6-16.2 10.6-18.4 1.3-0.4 2.6-0.5 3.9-0.5 6.6 0 12.7 4.4 14.5 11.1l7.3 27.3c0.6 2.2 0.6 4.5 0.2 6.7 0.1 0 0.2 0.1 0.3 0.1l16.8 9.8-8.9-33.5c-2.1-8 2.6-16.2 10.6-18.4 1.3-0.3 2.6-0.5 3.9-0.5 1.8 0 3.6 0.4 5.3 1 0.5-3 1.9-5.9 4.2-8.2 2.9-2.9 6.8-4.4 10.6-4.4s7.7 1.5 10.6 4.4l24.5 24.5V395.6c-2.1-0.7-4.1-1.9-5.7-3.6l-19.9-19.9c-5.9-5.9-5.9-15.4 0-21.2 2.9-2.9 6.8-4.4 10.6-4.4s7.7 1.5 10.6 4.4l19.3 19.3 19.3-19.3c2.9-2.9 6.8-4.4 10.6-4.4s7.7 1.5 10.6 4.4c5.9 5.9 5.9 15.4 0 21.2L729.7 392c-1.7 1.6-3.6 2.8-5.6 3.5v19.8l24.4-24.4c2.9-2.9 6.8-4.4 10.6-4.4s7.7 1.5 10.6 4.4c2.3 2.3 3.7 5.2 4.2 8.2 1.7-0.7 3.5-1 5.4-1 1.3 0 2.6 0.2 3.9 0.5 8 2.1 12.8 10.4 10.6 18.4l-8.9 33.4 16.7-9.7c0.1-0.1 0.3-0.1 0.4-0.2-0.4-2.1-0.4-4.4 0.2-6.6l7.3-27.3c1.8-6.7 7.8-11.1 14.5-11.1 1.3 0 2.6 0.2 3.9 0.5 8 2.1 12.8 10.4 10.6 18.4l-7.1 26.5 26.4 7.1c8 2.2 12.8 10.4 10.6 18.4-2.2 7.9-10.4 12.6-18.4 10.5z m-202.7 22.7l-44.2 11.9 44.2 11.8c2.2 0.6 4.2 1.7 5.9 3.1l25.9-14.9-25.9-15c-1.7 1.4-3.7 2.5-5.9 3.1z m46.8-43.9c-2.1-0.7-4-1.9-5.7-3.5L656.2 420l11.8 44c0.6 2.2 0.6 4.5 0.2 6.6l25.9 14.9v-29.8z m0 81.7l-25.9 14.9c0.4 2.1 0.4 4.4-0.2 6.6L656.2 603l32.2-32.2c1.7-1.7 3.6-2.8 5.7-3.5v-29.9z m30 30c2.1 0.7 4 1.9 5.6 3.5l32.3 32.3-11.8-44.2c-0.6-2.2-0.6-4.4-0.2-6.5l-25.9-14.9v29.8z m5.6-115.3c-1.6 1.6-3.6 2.8-5.6 3.5v29.9l25.9-14.9c-0.4-2.1-0.3-4.3 0.2-6.5l11.8-44.2-32.3 32.2z m41.1 47.5c-2.2-0.6-4.2-1.7-5.8-3l-25.9 15 25.9 14.9c1.7-1.4 3.6-2.5 5.9-3.1l44.2-11.8-44.3-12zM850 476.9l-27.2-7.3c-2.2-0.6-4.2-1.7-5.9-3.1-0.1 0.1-0.2 0.1-0.3 0.2l-16.7 9.7 33.3 9c8 2.1 12.7 10.4 10.6 18.4-0.9 3.2-2.7 5.9-5.1 7.8 2.4 1.9 4.3 4.6 5.1 7.8 2.1 8-2.6 16.2-10.6 18.4l-33.3 8.9 16.8 9.7c0.1 0 0.2 0.1 0.2 0.2 1.7-1.5 3.7-2.6 5.9-3.2L850 546c1.3-0.4 2.6-0.5 3.9-0.5 6.6 0 12.7 4.4 14.5 11.1 2.1 8-2.6 16.2-10.6 18.4l-26.4 7.1 7.1 26.6c2.1 8-2.6 16.2-10.6 18.3-8 2.1-16.2-2.6-18.3-10.6l-7.3-27.4c-0.6-2.2-0.6-4.4-0.3-6.5-0.1-0.1-0.2-0.1-0.4-0.2l-16.7-9.7 8.9 33.2c2.1 8-2.6 16.2-10.6 18.4-3.2 0.8-6.4 0.6-9.2-0.5-0.5 3.1-1.8 6-4.2 8.4-5.9 5.9-15.4 5.9-21.2 0l-24.4-24.4V627v0.3c2.1 0.7 4 1.9 5.7 3.6l19.9 20.1c5.8 5.9 5.8 15.4-0.1 21.2-5.9 5.8-15.4 5.8-21.2-0.1L709 652.6v-282.3l19.3-19.3c2.9-2.9 6.8-4.4 10.6-4.4s7.7 1.5 10.6 4.4c5.9 5.9 5.9 15.4 0 21.2L729.7 392c-1.7 1.6-3.6 2.8-5.6 3.5v19.8l24.4-24.4c2.9-2.9 6.8-4.4 10.6-4.4s7.7 1.5 10.6 4.4c2.3 2.3 3.7 5.2 4.2 8.2 1.7-0.7 3.5-1 5.4-1 1.3 0 2.6 0.2 3.9 0.5 8 2.1 12.8 10.4 10.6 18.4l-8.9 33.4 16.7-9.7c0.1-0.1 0.3-0.1 0.4-0.2-0.4-2.1-0.4-4.4 0.2-6.6l7.3-27.3c1.8-6.7 7.8-11.1 14.5-11.1 1.3 0 2.6 0.2 3.9 0.5 8 2.1 12.8 10.4 10.6 18.4l-7.1 26.5 26.4 7.1c8 2.2 12.8 10.4 10.6 18.4-2.2 7.9-10.4 12.6-18.4 10.5z m-125.9 90.5c2.1 0.7 4 1.9 5.6 3.5l32.3 32.3-11.8-44.2c-0.6-2.2-0.6-4.4-0.2-6.5l-25.9-14.9v29.8z m5.6-115.3c-1.6 1.6-3.6 2.8-5.6 3.5v29.9l25.9-14.9c-0.4-2.1-0.3-4.3 0.2-6.5l11.8-44.2-32.3 32.2z m41.1 47.5c-2.2-0.6-4.2-1.7-5.8-3l-25.9 15 25.9 14.9c1.7-1.4 3.6-2.5 5.9-3.1l44.2-11.8-44.3-12zM536.2 152.2C536.2 48.3 452-36 348-36h-0.1V804h0.1c48 0 87.3-39.2 87.3-87.3v-397.9c60-31.3 100.8-94.2 100.9-166.6zM435.3 318.8V716.7C435.3 764.8 396 804 348 804h-0.1v-840h0.1c104 0 188.2 84.3 188.2 188.2-0.1 72.4-40.9 135.3-100.9 166.6zM457.4 152c0-60.4-49.1-109.5-109.5-109.5V736.7c13.8 0 25-11.2 25-25v-453c48.5-11.2 84.6-54.7 84.5-106.7zM457.4 152c0-60.4-49.1-109.5-109.5-109.5s-109.5 49-109.5 109.5c0 52 36.1 95.5 84.5 106.7V380.8c1.7 0.5 3.5 0.7 5.3 0.7h44.7v-122.8c48.5-11.2 84.6-54.7 84.5-106.7zM525.1 361.5c0-11-8.9-20-20-20H328.2c-1.8 0-3.6 0.2-5.3 0.7-8.5 2.3-14.7 10.1-14.7 19.3s6.2 17 14.7 19.3c1.7 0.5 3.5 0.7 5.3 0.7h176.9c11.1 0 20-9 20-20zM457.4 152c0-60.4-49.1-109.5-109.5-109.5v339h25v-122.8c48.5-11.2 84.6-54.7 84.5-106.7z"  horiz-adv-x="1024" />

    
    <glyph glyph-name="mianxingduoyun" unicode="&#58948;" d="M823.3 407c0-25.8-4.9-50.8-14.5-74.5-3.2-7.8-10.7-12.5-18.6-12.5-2.5 0-5.1 0.5-7.5 1.5-7.7 3.2-12.4 10.5-12.4 18.4H492l-0.3 163.7c-4.7 0-9.3 1.6-13.1 4.8-8.3 7.2-9.2 19.9-2 28.2 37.6 43.2 91.9 68 149.1 68h1.7c108.1-0.9 195.9-89.2 195.9-197.6zM544 634.5c2.4-8.9 10.5-14.8 19.3-14.8 1.7 0 3.5 0.3 5.2 0.7 10.6 2.9 17 13.8 14.1 24.5l-19.7 73.5c-2.9 10.6-13.8 17-24.5 14.1-10.6-2.9-17-13.8-14.1-24.5l19.7-73.5zM469.5 591.5l-53.8 53.8c-7.8 7.8-20.5 7.8-28.3 0-7.8-7.8-7.8-20.5 0-28.3l53.8-53.7c3.9-3.9 9-5.9 14.1-5.9s10.3 1.9 14.2 5.8c7.8 7.8 7.8 20.5 0 28.3zM668.8 644.9l19.7 73.5c2.9 10.7 13.8 17 24.5 14.1s17-13.8 14.1-24.5l-19.7-73.5c-2.4-8.9-10.5-14.8-19.3-14.8-1.7 0-3.5 0.2-5.2 0.7-10.7 2.9-17 13.8-14.1 24.5zM823.3 407c0-25.8-4.9-50.8-14.5-74.5-3.2-7.8-10.7-12.5-18.6-12.5-2.5 0-5.1 0.5-7.5 1.5-7.7 3.2-12.4 10.5-12.4 18.4H627.4V604.6c108.1-0.9 195.9-89.2 195.9-197.6zM782 563.3c-7.8 7.8-7.8 20.5 0 28.3l53.8 53.8c7.8 7.8 20.5 7.8 28.3 0 7.8-7.8 7.8-20.5 0-28.3l-53.8-53.8c-3.9-4-9.1-5.9-14.2-5.9s-10.2 2-14.1 5.9zM951.3 319.7c-2.4-8.9-10.5-14.8-19.3-14.8-1.7 0-3.5 0.2-5.2 0.7l-73.5 19.7c-10.7 2.9-17 13.8-14.1 24.5 2.9 10.7 13.8 17 24.5 14.1l73.5-19.7c10.7-2.9 17-13.8 14.1-24.5zM853.3 488.6l73.5 19.7c10.7 2.9 21.6-3.5 24.5-14.1 2.9-10.6-3.5-21.6-14.1-24.5L863.7 450c-1.8-0.4-3.5-0.7-5.2-0.7-8.8 0-16.9 5.9-19.3 14.8-2.9 10.7 3.5 21.6 14.1 24.5zM855.6 218.5c0-98.9-80.4-179.3-179.3-179.3-1.8 0-3.4 0.1-4.9 0.2-0.9-0.1-1.8-0.2-2.7-0.2h-440c-0.9 0-1.7 0-2.5 0.2-1.6-0.1-3.3-0.2-5.1-0.2-82.2 0-149 66.8-149 149 0 78 60.2 142.1 136.5 148.5v3.2c0 115.6 94 209.6 209.6 209.6 15.6 0 30.9-1.7 45.6-5 77.3-17.2 139.2-77.1 158-155.2 17.5 5.6 35.6 8.5 54.2 8.5 98.8 0 179.4-80.4 179.6-179.3zM855.6 218.5c0-98.9-80.4-179.3-179.3-179.3-1.8 0-3.4 0.1-4.9 0.2-0.9-0.1-1.8-0.2-2.7-0.2H463.8V544.5c77.3-17.2 139.2-77.1 158-155.2 17.5 5.6 35.6 8.5 54.2 8.5 98.8 0 179.4-80.4 179.6-179.3z"  horiz-adv-x="1024" />

    
    <glyph glyph-name="mianxinggaowen" unicode="&#58949;" d="M347.9 804v-840c-104 0-188.1 84.2-188.1 188.2 0 72.4 41 135.3 100.9 166.8V716.7c0 24 9.8 45.8 25.6 61.6 15.8 15.8 37.6 25.7 61.6 25.7zM347.9 736.7v-694.2c-60.4 0-109.5 49-109.5 109.5 0 52 36.1 95.5 84.5 106.7v453c0 13.8 11.2 25 25 25zM536.2 152.2C536.2 48.3 452-36 348-36h-0.1v78.5c60.4 0 109.5 49.1 109.5 109.5 0.1 52-36 95.5-84.5 106.7v453c0 13.8-11.2 25-25 25V804h0.1c48 0 87.3-39.2 87.3-87.3v-397.9c60-31.3 100.8-94.2 100.9-166.6zM457.4 152c0-60.4-49.1-109.5-109.5-109.5V677.3h25v-418.6c48.5-11.2 84.6-54.7 84.5-106.7zM372.9 711.7v-34.4h-25v59.4c13.8 0 25-11.2 25-25zM664.2 620.3c2.4-8.9 10.5-14.9 19.3-14.9 1.7 0 3.4 0.2 5.2 0.7 10.7 2.8 17 13.8 14.2 24.5l-9.6 36c-2.8 10.7-13.8 17-24.5 14.2-10.7-2.8-17-13.8-14.2-24.5l9.6-36zM616.6 580.8c3.9-3.9 9-5.9 14.2-5.9 5.1 0 10.2 1.9 14.1 5.8 7.8 7.8 7.8 20.5 0.1 28.3l-26.3 26.4c-7.8 7.8-20.5 7.8-28.3 0.1-7.8-7.8-7.8-20.5-0.1-28.3l26.3-26.4zM559 532.5l36-9.6c1.7-0.5 3.5-0.7 5.2-0.7 8.8 0 16.9 5.9 19.3 14.9 2.8 10.7-3.5 21.6-14.2 24.5l-36 9.6c-10.7 2.8-21.6-3.5-24.5-14.2-2.8-10.7 3.6-21.7 14.2-24.5zM619.5 486.1c-2.8 10.7-13.8 17-24.5 14.2l-36-9.6c-10.7-2.8-17-13.8-14.2-24.5 2.4-8.9 10.5-14.9 19.3-14.9 1.7 0 3.4 0.2 5.2 0.7l36 9.6c10.7 2.8 17.1 13.8 14.2 24.5zM616.6 442.3l-26.3-26.4c-7.8-7.8-7.8-20.5 0.1-28.3 3.9-3.9 9-5.8 14.1-5.8s10.3 2 14.2 5.9l26.3 26.4c7.8 7.8 7.8 20.5-0.1 28.3-7.8 7.8-20.5 7.7-28.3-0.1zM688.7 416.8c-10.7 2.8-21.6-3.5-24.5-14.2l-9.6-36c-2.8-10.7 3.5-21.6 14.2-24.5 1.7-0.5 3.5-0.7 5.2-0.7 8.8 0 16.9 5.9 19.3 14.9l9.6 36c2.8 10.7-3.6 21.7-14.2 24.5zM714.2 511.5m-92.9 0a92.9 92.9 0 1 1 185.8 0 92.9 92.9 0 1 1-185.8 0ZM505.1 637.3H328.2c-11 0-20 9-20 20s9 20 20 20h176.9c11 0 20-9 20-20s-9-20-20-20zM714.2 418.6V604.4c51.2 0 92.9-41.7 92.9-92.9s-41.7-92.9-92.9-92.9zM773.8 366.7c2.9-10.7-3.4-21.6-14.1-24.5-1.7-0.5-3.5-0.7-5.2-0.7-8.8 0-16.9 5.9-19.3 14.8l-9.7 36c-2.9 10.7 3.4 21.6 14.1 24.5 10.7 2.9 21.6-3.4 24.5-14.1l9.7-36zM725.5 630.7l9.7 36c2.9 10.7 13.8 17 24.5 14.1 10.7-2.9 17-13.8 14.1-24.5l-9.7-36c-2.4-8.9-10.5-14.8-19.3-14.8-1.7 0-3.5 0.2-5.2 0.7-10.7 2.9-17 13.8-14.1 24.5zM838 415.9c7.8-7.8 7.8-20.5 0-28.3-3.9-3.9-9-5.9-14.1-5.9s-10.2 2-14.1 5.9L783.4 414c-7.8 7.8-7.8 20.5 0 28.3s20.5 7.8 28.3 0l26.3-26.4zM783.4 580.8c-7.8 7.8-7.8 20.5 0 28.3l26.4 26.4c7.8 7.8 20.5 7.8 28.3 0s7.8-20.5 0-28.3l-26.4-26.4c-3.9-3.9-9-5.9-14.1-5.9s-10.3 1.9-14.2 5.9zM883.5 466.2c-2.4-9-10.5-14.9-19.3-14.9-1.7 0-3.4 0.2-5.2 0.7l-36 9.6c-10.7 2.8-17 13.8-14.2 24.5 2.8 10.7 13.8 17 24.5 14.2l36-9.6c10.7-2.9 17.1-13.9 14.2-24.5zM823 561.5l36 9.6c10.7 2.8 21.6-3.5 24.5-14.2 2.8-10.7-3.5-21.6-14.2-24.5l-36-9.6c-1.7-0.5-3.5-0.7-5.2-0.7-8.8 0-16.9 5.9-19.3 14.8-2.8 10.8 3.6 21.8 14.2 24.6zM347.9 736.7v-59.4h-25v34.4c0 13.8 11.2 25 25 25zM372.9 711.7v-34.4h-25v59.4c13.8 0 25-11.2 25-25z"  horiz-adv-x="1024" />

    
    <glyph glyph-name="mianxingtedabaoxue" unicode="&#58952;" d="M712.4 397.2l-78.2 34.3-17.5 7.7 3.3 30.3 8 73.3c0.9 7.9-3 15.5-9.9 19.5s-15.4 3.5-21.8-1.2l-64.4-47-20-14.6v-44.8c4.1 0 8.3 1.3 11.8 3.8l8.2 6 51.4 37.5-6.3-57.4-1.7-15.8c-1-8.7 3.8-17 11.8-20.5l4-1.8 63.4-27.8-53.2-23.4-14.2-6.2c-8-3.5-12.8-11.8-11.8-20.5l0.5-4.7 7.5-68.4-51.3 37.6-8.2 6c-3.5 2.6-7.6 3.8-11.8 3.8v-44.8l20-14.6 64.4-47c3.5-2.5 7.6-3.8 11.8-3.8 3.5 0 6.9 0.9 10 2.7 6.9 4 10.7 11.6 9.9 19.5l-9.2 84.3-2.1 19.3 27.6 12.2 68.1 29.9c7.3 3.2 11.9 10.4 11.9 18.3s-4.7 15.1-12 18.3zM712.4 397.2l-78.2 34.3-17.5 7.7 3.3 30.3 8 73.3c0.9 7.9-3 15.5-9.9 19.5s-15.4 3.5-21.8-1.2l-64.4-47-20-14.6-20 14.6-64.4 47c-6.4 4.7-15 5.1-21.8 1.2-6.9-4-10.7-11.6-9.9-19.5l8-73.3 3.3-30.3-17.5-7.7-78.2-34.3c-7.3-3.2-12-10.4-12-18.3s4.7-15.1 12-18.3l68.1-29.9 27.6-12.2-2.1-19.3-9.2-84.3c-0.9-7.9 3-15.5 9.9-19.5s15.4-3.5 21.8 1.1l64.4 47 20 14.6 20-14.6 64.4-47c3.5-2.5 7.6-3.8 11.8-3.8 3.5 0 6.9 0.9 10 2.7 6.9 4 10.7 11.6 9.9 19.5l-9.2 84.3-2.1 19.3 27.6 12.2 68.1 29.9c7.3 3.2 11.9 10.4 11.9 18.3 0.1 7.9-4.6 15.1-11.9 18.3z m-111-41.7l-14.2-6.2c-8-3.5-12.8-11.8-11.8-20.5l0.5-4.7 7.5-68.4-51.4 37.4-8.2 6c-3.5 2.6-7.6 3.8-11.8 3.8s-8.3-1.3-11.8-3.8l-8.2-6-51.4-37.5 7.5 68.4 0.5 4.7c1 8.7-3.8 17-11.8 20.5l-14.2 6.2-53.2 23.4 63.4 27.8 4 1.8c8 3.5 12.8 11.8 11.8 20.5l-1.7 15.8-6.3 57.4 51.4-37.5 8.2-6c3.5-2.6 7.6-3.8 11.8-3.8s8.3 1.3 11.8 3.8l8.2 6 51.4 37.5-6.3-57.4-1.7-15.8c-1-8.7 3.8-17 11.8-20.5l4-1.8 63.4-27.8-53.2-23.3zM712.4 397.2l-78.2 34.3-17.5 7.7 3.3 30.3 8 73.3c0.9 7.9-3 15.5-9.9 19.5s-15.4 3.5-21.8-1.2l-64.4-47-20-14.6v-44.8c4.1 0 8.3 1.3 11.8 3.8l8.2 6 51.4 37.5-6.3-57.4-1.7-15.8c-1-8.7 3.8-17 11.8-20.5l4-1.8 63.4-27.8-53.2-23.4-14.2-6.2c-8-3.5-12.8-11.8-11.8-20.5l0.5-4.7 7.5-68.4-51.3 37.6-8.2 6c-3.5 2.6-7.6 3.8-11.8 3.8v-44.8l20-14.6 64.4-47c3.5-2.5 7.6-3.8 11.8-3.8 3.5 0 6.9 0.9 10 2.7 6.9 4 10.7 11.6 9.9 19.5l-9.2 84.3-2.1 19.3 27.6 12.2 68.1 29.9c7.3 3.2 11.9 10.4 11.9 18.3s-4.7 15.1-12 18.3zM859.9 271.2c-3.4 8.8-12.5 14.1-21.8 12.6l-88.3-14-27.2 15.7 73.6 16.5c10.8 2.4 17.6 13.1 15.2 23.9-2.4 10.8-13.1 17.6-23.9 15.2l-116-26-27.1 15.6-43 24.8L552 384l39.3 22.7 43 24.8 37.1 21.4 116-26c1.5-0.3 2.9-0.5 4.4-0.5 9.1 0 17.4 6.3 19.5 15.6 2.4 10.8-4.4 21.5-15.2 23.9l-73.6 16.5 27.2 15.7 88.3-14c1-0.2 2.1-0.2 3.1-0.2 8.2 0 15.7 5 18.7 12.8l34.5 90c2.2 5.6 1.7 11.9-1.4 17.2-3 5.2-8.2 8.8-14.2 9.8l-95.2 15c-9.3 1.5-18.4-3.8-21.8-12.6l-32.1-83.3-27.1-15.7L725 589c3.3 10.5-2.6 21.8-13.1 25.1-10.5 3.3-21.8-2.6-25.1-13.1l-35.6-113.4-31.4-18.1-42.9-24.8-44.9-26V556.5l80.5 87.6c7.5 8.1 6.9 20.8-1.2 28.3s-20.8 7-28.3-1.2l-51-55.6V647l56.2 69.5c5.9 7.3 5.9 17.8 0 25.1l-60.6 74.9C523.8 821.3 518 824 512 824s-11.8-2.7-15.5-7.4l-60.6-74.9c-5.9-7.3-5.9-17.8 0-25.1L492 647v-31.4l-51.1 55.5c-7.5 8.1-20.1 8.7-28.3 1.2-8.1-7.5-8.7-20.1-1.2-28.3l80.5-87.6v-137.8l-45.1 26.1-42.9 24.8-31.4 18.1L337 601.1c-3.3 10.5-14.5 16.4-25.1 13.1-10.5-3.3-16.4-14.5-13.1-25.1l22.5-71.9-27.1 15.7-32.1 83.3c-3.4 8.8-12.5 14-21.8 12.6l-95.2-15c-6-0.9-11.2-4.5-14.2-9.8-3-5.2-3.5-11.5-1.4-17.2l34.5-90c3-7.8 10.5-12.8 18.7-12.8 1 0 2.1 0.1 3.1 0.2l88.3 14 27.2-15.7-73.5-16.5c-10.8-2.4-17.6-13.1-15.2-23.9 2.1-9.3 10.4-15.6 19.5-15.6 1.5 0 2.9 0.2 4.4 0.5l116 26 37.1-21.4 43-24.8L472 384l-49.5-28.6-43-24.8-27-15.6-116 26c-10.8 2.4-21.5-4.4-23.9-15.2s4.4-21.5 15.2-23.9l73.6-16.5-27.2-15.7-88.3 14c-9.3 1.5-18.4-3.8-21.8-12.6l-34.5-90c-2.2-5.6-1.7-11.9 1.4-17.2 3-5.2 8.2-8.8 14.2-9.8l95.2-15c1-0.2 2.1-0.2 3.1-0.2 8.2 0 15.6 5 18.7 12.8l32.1 83.3 27.1 15.7-22.5-71.9c-3.3-10.5 2.6-21.8 13.1-25.1 2-0.6 4-0.9 6-0.9 8.5 0 16.4 5.5 19.1 14l35.6 113.5 32.6 18.8 42.9 24.8 43.9 25.4v-137.9l-80.5-87.6c-7.5-8.1-6.9-20.8 1.2-28.3s20.8-7 28.3 1.2l51.1 55.5V121L436 51.5c-5.9-7.3-5.9-17.8 0-25.1l60.6-74.9c3.8-4.7 9.5-7.4 15.5-7.4s11.8 2.7 15.5 7.4l60.6 74.9c5.9 7.3 5.9 17.8 0 25.1L532 121v31.4l51.1-55.5c3.9-4.3 9.3-6.5 14.7-6.5 4.8 0 9.7 1.8 13.5 5.3 8.1 7.5 8.7 20.1 1.2 28.3L532 211.5V349.4l43.9-25.4 42.9-24.8 32.6-18.8L687 166.9c2.7-8.5 10.6-14 19.1-14 2 0 4 0.3 6 0.9 10.5 3.3 16.4 14.5 13.1 25.1l-22.5 72 27.1-15.7 32.1-83.3c3-7.8 10.5-12.8 18.7-12.8 1 0 2.1 0.1 3.1 0.2l95.2 15c6 0.9 11.2 4.5 14.2 9.8 3 5.2 3.5 11.5 1.4 17.2l-34.6 89.9z m-66.5 315.5l54.8-8.6-19.8-51.8-54.9 8.7 19.9 51.7z m-597.7-60.4l-19.8 51.8 54.8 8.6 19.9-51.7-54.9-8.7z m34.9-345l-54.8 8.6 19.8 51.8 54.9-8.7-19.9-51.7z m316.3-142.4L512-4.2l-34.9 43.1 34.9 43.2 34.9-43.2z m-34.9 647l-34.9 43.2 34.9 43.1 34.9-43.1-34.9-43.2z m281.4-504.6l-20 51.7 54.9 8.7 19.8-51.8-54.7-8.6zM306.4 729.1m-20 0a20 20 0 1 1 40 0 20 20 0 1 1-40 0ZM717.6 729.1m-20 0a20 20 0 1 1 40 0 20 20 0 1 1-40 0ZM148.3 386m-20 0a20 20 0 1 1 40 0 20 20 0 1 1-40 0ZM875.7 386m-20 0a20 20 0 1 1 40 0 20 20 0 1 1-40 0ZM306.4 39m-20 0a20 20 0 1 1 40 0 20 20 0 1 1-40 0ZM717.6 39m-20 0a20 20 0 1 1 40 0 20 20 0 1 1-40 0ZM859.9 271.2c-3.4 8.8-12.5 14.1-21.8 12.6l-88.3-14-27.2 15.7 73.6 16.5c10.8 2.4 17.6 13.1 15.2 23.9-2.4 10.8-13.1 17.6-23.9 15.2l-116-26-27.1 15.6-43 24.8L552 384l39.3 22.7 43 24.8 37.1 21.4 116-26c1.5-0.3 2.9-0.5 4.4-0.5 9.1 0 17.4 6.3 19.5 15.6 2.4 10.8-4.4 21.5-15.2 23.9l-73.6 16.5 27.2 15.7 88.3-14c1-0.2 2.1-0.2 3.1-0.2 8.2 0 15.7 5 18.7 12.8l34.5 90c2.2 5.6 1.7 11.9-1.4 17.2-3 5.2-8.2 8.8-14.2 9.8l-95.2 15c-9.3 1.5-18.4-3.8-21.8-12.6l-32.1-83.3-27.1-15.7L725 589c3.3 10.5-2.6 21.8-13.1 25.1-10.5 3.3-21.8-2.6-25.1-13.1l-35.6-113.4-31.4-18.1-42.9-24.8-44.9-26V556.5l80.5 87.6c7.5 8.1 6.9 20.8-1.2 28.3s-20.8 7-28.3-1.2l-51-55.6V647l56.2 69.5c5.9 7.3 5.9 17.8 0 25.1l-60.6 74.9C523.8 821.3 518 824 512 824v-51.8l34.9-43.1-34.9-43.2v-603.8l34.9-43.2-34.9-43.1V-56c6 0 11.8 2.7 15.5 7.4l60.6 74.9c5.9 7.3 5.9 17.8 0 25.1L532 121v31.4l51.1-55.5c3.9-4.3 9.3-6.5 14.7-6.5 4.8 0 9.7 1.8 13.5 5.3 8.1 7.5 8.7 20.1 1.2 28.3L532 211.5V349.4l43.9-25.4 42.9-24.8 32.6-18.8L687 166.9c2.7-8.5 10.6-14 19.1-14 2 0 4 0.3 6 0.9 10.5 3.3 16.4 14.5 13.1 25.1l-22.5 72 27.1-15.7 32.1-83.3c3-7.8 10.5-12.8 18.7-12.8 1 0 2.1 0.1 3.1 0.2l95.2 15c6 0.9 11.2 4.5 14.2 9.8 3 5.2 3.5 11.5 1.4 17.2l-34.6 89.9z m-66.5 315.5l54.8-8.6-19.8-51.8-54.9 8.7 19.9 51.7z m0-405.4l-20 51.7 54.9 8.7 19.8-51.8-54.7-8.6zM717.6 39m-20 0a20 20 0 1 1 40 0 20 20 0 1 1-40 0ZM717.6 729.1m-20 0a20 20 0 1 1 40 0 20 20 0 1 1-40 0ZM875.7 386m-20 0a20 20 0 1 1 40 0 20 20 0 1 1-40 0Z"  horiz-adv-x="1024" />

    
    <glyph glyph-name="mianxingwu" unicode="&#58953;" d="M768.9 338.5H512v-20H379.2c0-11-9-20-20-20s-20 9-20 20h-84.9c0 6.7 0.2 13.4 0.8 20 4.7 61.3 30.8 118.2 74.7 162.2 48.7 48.7 113.4 75.5 182.2 75.5s133.5-26.8 182.2-75.5c44-43.9 70.1-100.9 74.7-162.2zM927.2 409.1l-98.4-26.4c-1.8-0.5-3.5-0.7-5.2-0.7-8.8 0-16.9 5.9-19.3 14.8-2.9 10.7 3.5 21.6 14.1 24.5l98.4 26.4c10.7 2.9 21.6-3.5 24.5-14.1 2.9-10.6-3.5-21.6-14.1-24.5zM826.3 604.5l-72-72c-4-3.9-9.1-5.9-14.2-5.9s-10.2 2-14.1 5.9c-7.8 7.8-7.8 20.5 0 28.3l72 72c7.8 7.8 20.5 7.8 28.3 0s7.8-20.5 0-28.3zM641.2 723.3l-26.4-98.4c-2.4-8.9-10.5-14.8-19.3-14.8-1.7 0-3.5 0.2-5.2 0.7-10.7 2.9-17 13.8-14.1 24.5l26.4 98.4c2.9 10.7 13.8 17 24.5 14.1 10.7-2.9 17-13.8 14.1-24.5zM512 338.5v-40H99c-11 0-20 9-20 20s9 20 20 20h413zM845 221.8c0-11-9-20-20-20H199c-11 0-20 9-20 20s9 20 20 20h626c11 0 20-9 20-20zM745 125.1c0-11-9-20-20-20H299c-11 0-20 9-20 20 0 11.1 9 20 20 20h426c11 0 20-8.9 20-20zM645 19.5c0-11-9-20-20-20H399c-11 0-20 9-20 20s9 20 20 20h226c11 0 20-9 20-20zM576.2 635.3l26.4 98.4c2.9 10.7 13.8 17 24.5 14.1 10.7-2.9 17-13.8 14.1-24.5l-26.4-98.4c-2.4-8.9-10.5-14.8-19.3-14.8-1.7 0-3.5 0.2-5.2 0.7-10.7 2.9-17 13.8-14.1 24.5zM726 532.5c-7.8 7.8-7.8 20.5 0 28.3l72 72c7.8 7.8 20.5 7.8 28.3 0s7.8-20.5 0-28.3l-72-72c-4-3.9-9.1-5.9-14.2-5.9s-10.2 2-14.1 5.9zM645 19.5c0-11-9-20-20-20H512v40h113c11 0 20-9 20-20zM745 125.1c0-11-9-20-20-20H512v40h213c11 0 20-8.9 20-20zM845 221.8c0-11-9-20-20-20H512v40h313c11 0 20-9 20-20zM945 318.5c0-11-9-20-20-20H512v40h413c11 0 20-9 20-20zM768.9 338.5H512V576.2c68.8 0 133.5-26.8 182.2-75.5 44-43.9 70.1-100.9 74.7-162.2zM818.4 421.3l98.4 26.4c10.7 2.9 21.6-3.5 24.5-14.1 2.9-10.6-3.5-21.6-14.1-24.5l-98.4-26.4c-1.8-0.5-3.5-0.7-5.2-0.7-8.8 0-16.9 5.9-19.3 14.8-2.9 10.7 3.5 21.6 14.1 24.5zM409.2 624.9c2.4-8.9 10.5-14.8 19.3-14.8 1.7 0 3.5 0.2 5.2 0.7 10.6 2.9 17 13.8 14.1 24.5l-26.4 98.4c-2.9 10.6-13.8 17-24.5 14.1-10.6-2.9-17-13.8-14.1-24.5l26.4-98.4zM269.8 532.5c3.9-3.9 9-5.9 14.1-5.9s10.2 2 14.2 5.9c7.8 7.8 7.8 20.5 0 28.3l-72 72c-7.8 7.8-20.5 7.8-28.3 0s-7.8-20.5 0-28.3l72-72zM205.6 421.3l-98.4 26.4c-10.7 2.9-21.6-3.4-24.5-14.1-2.9-10.7 3.4-21.6 14.1-24.5l98.4-26.4c1.7-0.5 3.5-0.7 5.2-0.7 8.8 0 16.9 5.9 19.3 14.8 2.9 10.7-3.4 21.6-14.1 24.5z"  horiz-adv-x="1024" />

    
    <glyph glyph-name="mianxingtianqiyubao" unicode="&#58954;" d="M733.581051 271.586965a14.6 14.6 0 1 1 4.678089 28.822829 14.6 14.6 0 1 1-4.678089-28.822829ZM756.3 195v-9c0-21.5 17.5-39 39-39 12.6 0 24.2 6 31.7 16.3 6.5 8.9 19 10.9 27.9 4.4 8.9-6.5 10.9-19 4.5-27.9-14.9-20.6-38.9-32.9-64.1-32.9-43.6 0-79 35.4-79 79v9c0 43.6 35.4 79 79 79 25.6 0 49.8-12.6 64.7-33.7 6.4-9 4.2-21.5-4.8-27.9-9-6.4-21.5-4.2-27.9 4.8-7.4 10.5-19.3 16.7-32 16.7-21.5 0.2-39-17.3-39-38.8zM858 426.6c-1.2 0-2.3 0.3-3.4 0.9 0.2-1.7 0.4-3.5 0.4-5.3 0-1.8-0.1-3.5-0.4-5.3 1.5 0.8 3.4 1.1 5.2 0.6l13.5-3.6c3.7-1 6-4.8 5-8.6-0.8-3.1-3.7-5.2-6.8-5.2-0.6 0-1.2 0.1-1.8 0.2l-11.5 3.1c2.5-4.9 3.9-10.5 3.9-16.4 0-20.1-16.4-36.5-36.5-36.5H741.4c-17 0-30.9 13.9-30.9 30.9 0 15.2 11 27.8 25.4 30.4 1.2 21.5 18.6 38.8 40.2 39.8l-6.7 6.7c-2.8 2.7-2.8 7.1-0.1 9.9 2.7 2.8 7.2 2.8 9.9 0.1l9.9-9.8c1.4-1.4 2.1-3.2 2.1-5 2.9 2.2 6 4 9.3 5.4-1.5 0.9-2.8 2.4-3.3 4.2l-3.6 13.5c-1 3.7 1.2 7.6 5 8.6 3.7 1 7.6-1.2 8.6-5l3.6-13.5c0.5-1.9 0.2-3.7-0.7-5.3 1.8 0.2 3.6 0.4 5.4 0.4 1.8 0 3.6-0.1 5.3-0.4-0.9 1.5-1.2 3.4-0.7 5.3l3.6 13.5c1 3.7 4.8 6 8.6 5 3.7-1 6-4.8 5-8.6l-3.6-13.5c-0.5-1.9-1.7-3.3-3.2-4.2 3.3-1.4 6.5-3.2 9.3-5.4 0 1.8 0.7 3.6 2.1 4.9l9.8 9.8c2.7 2.7 7.2 2.7 9.9 0s2.7-7.2 0-9.9l-9.8-9.8c-1.4-1.4-3.1-2-4.9-2 2.2-2.8 4-5.9 5.4-9.3 0.9 1.5 2.3 2.6 4.1 3.1l13.5 3.7c3.7 1 7.6-1.2 8.6-4.9s-1.2-7.6-4.9-8.6l-13.5-3.7c-0.9-0.1-1.5-0.2-2.1-0.2zM533.1 366.6l4.5-16.8c1-3.7-1.2-7.6-5-8.6-0.6-0.2-1.2-0.2-1.8-0.2-3.1 0-5.9 2.1-6.8 5.2l-4.5 16.8c-1 3.7 1.2 7.6 5 8.6 3.7 1 7.6-1.3 8.6-5zM532.6 494.8c3.7-1 6-4.8 5-8.6l-4.5-16.8c-0.8-3.1-3.7-5.2-6.8-5.2-0.6 0-1.2 0.1-1.8 0.2-3.7 1-6 4.8-5 8.6l4.5 16.8c1 3.7 4.9 6 8.6 5zM555.8 384l12.3-12.3c2.7-2.7 2.7-7.2 0-9.9-1.4-1.4-3.2-2-5-2-1.8 0-3.6 0.7-5 2L546 374.2c-2.7 2.7-2.7 7.2 0 9.9s7.1 2.7 9.8-0.1zM568.2 464.2L555.8 452c-1.4-1.4-3.2-2-4.9-2-1.8 0-3.6 0.7-5 2-2.7 2.7-2.7 7.2 0 9.9l12.3 12.3c2.7 2.7 7.2 2.7 9.9 0 2.8-2.8 2.8-7.2 0.1-10zM588.8 397.4c-0.8-3.1-3.7-5.2-6.8-5.2-0.6 0-1.2 0.1-1.8 0.2l-16.8 4.5c-3.7 1-6 4.8-5 8.6 1 3.7 4.8 6 8.6 5l16.8-4.5c3.7-1 6-4.9 5-8.6zM588.8 438.6c1-3.7-1.2-7.6-5-8.6l-16.8-4.5c-0.6-0.2-1.2-0.2-1.8-0.2-3.1 0-5.9 2.1-6.8 5.2-1 3.7 1.2 7.6 5 8.6l16.8 4.5c3.7 1 7.6-1.3 8.6-5zM580 139.9c-14.8-20.6-38.8-32.9-64-32.9-1.8 0-3.6 0.1-5.4 0.2V44H182c-49.5 0-90 40.5-90 90V612c0 49.5 40.5 90 90 90h350v-41c0-11-9-20-20-20-0.5 0-1 0-1.5 0.1V459h1.5c22.6 0 41-18.4 41-41s-18.4-41-41-41h-1.5v-103.2c1.8 0.1 3.5 0.2 5.4 0.2 25.6 0 49.8-12.6 64.6-33.7 6.4-9 4.2-21.5-4.8-27.9-9-6.4-21.5-4.2-27.9 4.8-7.4 10.5-19.3 16.7-31.9 16.7-1.8 0-3.6-0.1-5.4-0.4v-86.3c1.8-0.2 3.5-0.4 5.4-0.4 12.4 0 24.2 6.1 31.6 16.3 6.4 9 18.9 11 27.9 4.6 8.9-6.3 11-18.8 4.6-27.8zM622 702h40v-41c0-11-9-20-20-20s-20 9-20 20v41zM792 702v-41c0-11-9-20-20-20s-20 9-20 20v41h40zM533.1 366.6l4.5-16.8c1-3.7-1.2-7.6-5-8.6-0.6-0.2-1.2-0.2-1.8-0.2-3.1 0-5.9 2.1-6.8 5.2l-4.5 16.8c-1 3.7 1.2 7.6 5 8.6 3.7 1 7.6-1.3 8.6-5zM519.5 473l4.5 16.8c1 3.7 4.8 6 8.6 5s6-4.8 5-8.6l-4.5-16.8c-0.8-3.1-3.7-5.2-6.8-5.2-0.6 0-1.2 0.1-1.8 0.2-3.7 1-6 4.9-5 8.6zM555.8 384l12.3-12.3c2.7-2.7 2.7-7.2 0-9.9-1.4-1.4-3.2-2-5-2-1.8 0-3.6 0.7-5 2L546 374.2c-2.7 2.7-2.7 7.2 0 9.9s7.1 2.7 9.8-0.1zM546 452c-2.7 2.7-2.7 7.2 0 9.9l12.3 12.3c2.7 2.7 7.2 2.7 9.9 0s2.7-7.2 0-9.9L555.8 452c-1.4-1.4-3.2-2-4.9-2-1.8-0.1-3.6 0.6-4.9 2zM580.2 392.4l-16.8 4.5c-3.7 1-6 4.8-5 8.6 1 3.7 4.8 6 8.6 5l16.8-4.5c3.7-1 6-4.8 5-8.6-0.8-3.1-3.7-5.2-6.8-5.2-0.6 0-1.2 0.1-1.8 0.2zM563.4 439.1l16.8 4.5c3.7 1 7.6-1.2 8.6-5 1-3.7-1.2-7.6-5-8.6l-16.8-4.5c-0.6-0.2-1.2-0.2-1.8-0.2-3.1 0-5.9 2.1-6.8 5.2-1 3.7 1.3 7.6 5 8.6zM580 139.9c-14.8-20.6-38.8-32.9-64-32.9-1.8 0-3.6 0.1-5.4 0.2V44h-141V567h141v-108h1.5c22.6 0 41-18.4 41-41s-18.4-41-41-41h-1.5v-103.2c1.8 0.1 3.5 0.2 5.4 0.2 25.6 0 49.8-12.6 64.6-33.7 6.4-9 4.2-21.5-4.8-27.9-9-6.4-21.5-4.2-27.9 4.8-7.4 10.5-19.3 16.7-31.9 16.7-1.8 0-3.6-0.1-5.4-0.4v-86.3c1.8-0.2 3.5-0.4 5.4-0.4 12.4 0 24.2 6.1 31.6 16.3 6.4 9 18.9 11 27.9 4.6 8.8-6.3 10.9-18.8 4.5-27.8zM532 702v-41c0-11-9-20-20-20-0.5 0-1 0-1.5 0.1V567H92v45c0 49.5 40.5 90 90 90h350zM622 702h40v-41c0-11-9-20-20-20s-20 9-20 20v41zM792 702v-41c0-11-9-20-20-20s-20 9-20 20v41h40zM532 741v-80c0-11-9-20-20-20-0.5 0-1 0-1.5 0.1-10.4 0.7-18.5 9.4-18.5 19.9v80c0 10.6 8.2 19.2 18.5 19.9 0.5 0 1 0.1 1.5 0.1 11 0 20-9 20-20zM382 641c-11 0-20 9-20 20v80c0 11 9 20 20 20s20-9 20-20v-80c0-11-9-20-20-20zM662 741v-80c0-11-9-20-20-20s-20 9-20 20v80c0 11 9 20 20 20s20-9 20-20zM792 741v-80c0-11-9-20-20-20s-20 9-20 20v80c0 11 9 20 20 20s20-9 20-20zM252 641c-11 0-20 9-20 20v80c0 11 9 20 20 20s20-9 20-20v-80c0-11-9-20-20-20zM490.9 469.4c0.8-3.1 3.7-5.2 6.8-5.2 0.6 0 1.2 0.1 1.8 0.2 3.7 1 6 4.8 5 8.6l-4.5 16.8c-1 3.7-4.8 5.9-8.6 5-3.7-1-6-4.8-5-8.6l4.5-16.8zM468.2 452c1.4-1.4 3.2-2.1 4.9-2.1s3.6 0.7 4.9 2.1c2.7 2.7 2.7 7.2 0 9.9l-12.3 12.3c-2.7 2.7-7.2 2.7-9.9 0s-2.7-7.2 0-9.9l12.4-12.3zM440.2 430l16.8-4.5c0.6-0.2 1.2-0.2 1.8-0.2 3.1 0 5.9 2.1 6.8 5.2 1 3.7-1.2 7.6-5 8.6l-16.8 4.5c-3.7 1-7.6-1.2-8.6-5-1-3.7 1.3-7.6 5-8.6zM465.6 405.5c-1 3.7-4.8 5.9-8.6 5l-16.8-4.5c-3.7-1-6-4.8-5-8.6 0.8-3.1 3.7-5.2 6.8-5.2 0.6 0 1.2 0.1 1.8 0.2l16.8 4.5c3.7 1 6 4.9 5 8.6zM468.2 384l-12.3-12.3c-2.7-2.7-2.7-7.2 0-9.9 1.4-1.4 3.2-2.1 4.9-2.1 1.8 0 3.6 0.7 4.9 2L478 374c2.7 2.7 2.7 7.2 0 9.9-2.7 2.9-7.1 2.9-9.8 0.1zM499.5 371.6c-3.7 1-7.6-1.2-8.6-5l-4.5-16.8c-1-3.7 1.2-7.6 5-8.6 0.6-0.2 1.2-0.2 1.8-0.2 3.1 0 5.9 2.1 6.8 5.2l4.5 16.8c1 3.7-1.3 7.6-5 8.6zM532.6 341.2c-0.6-0.2-1.2-0.2-1.8-0.2-3.1 0-5.9 2.1-6.8 5.2l-4.5 16.8c-1 3.7 1.2 7.6 5 8.6 3.7 1 7.6-1.2 8.6-5l4.5-16.8c1-3.7-1.3-7.6-5-8.6zM568.2 361.8c-1.4-1.4-3.2-2-5-2-1.8 0-3.6 0.7-5 2L546 374.2c-2.7 2.7-2.7 7.2 0 9.9s7.2 2.7 9.9 0l12.3-12.3c2.7-2.8 2.7-7.2 0-10zM588.8 397.4c-0.8-3.1-3.7-5.2-6.8-5.2-0.6 0-1.2 0.1-1.8 0.2l-16.8 4.5c-3.7 1-6 4.8-5 8.6 1 3.7 4.8 6 8.6 5l16.8-4.5c3.7-1 6-4.9 5-8.6zM583.8 430l-16.8-4.5c-0.6-0.2-1.2-0.2-1.8-0.2-3.1 0-5.9 2.1-6.8 5.2-1 3.7 1.2 7.6 5 8.6l16.8 4.5c3.7 1 7.6-1.2 8.6-5 1-3.7-1.3-7.6-5-8.6zM568.2 464.2L555.8 452c-1.4-1.4-3.2-2-4.9-2-1.8 0-3.6 0.7-5 2-2.7 2.7-2.7 7.2 0 9.9l12.3 12.3c2.7 2.7 7.2 2.7 9.9 0 2.8-2.8 2.8-7.2 0.1-10zM537.6 486.2l-4.5-16.8c-0.8-3.1-3.7-5.2-6.8-5.2-0.6 0-1.2 0.1-1.8 0.2-3.7 1-6 4.8-5 8.6l4.5 16.8c1 3.7 4.8 6 8.6 5s6-4.9 5-8.6zM553 418c0-22.6-18.4-41-41-41h-1.5c-21.9 0.8-39.5 18.8-39.5 41s17.6 40.2 39.5 41h1.5c22.6 0 41-18.4 41-41zM878.3 405.4c-0.8-3.1-3.7-5.2-6.8-5.2-0.6 0-1.2 0.1-1.8 0.2l-11.5 3.1-2 0.5c-1.8 0.5-3.3 1.6-4.2 3.1-1.1-2.6-3.7-4.3-6.4-4.3-0.9 0-1.7 0.2-2.6 0.5-2.8 1.1-4.4 3.7-4.4 6.5l-47.9 0.1v26.6c-1.6 0-3.2 0.6-4.5 1.7-2.4 2.1-3 5.5-1.8 8.2h-0.3c-1.8 0-3.6 0.7-4.9 2l-3.2 3.1-6.7 6.7c-2.8 2.7-2.8 7.1-0.1 9.9 2.7 2.8 7.2 2.8 9.9 0.1l9.9-9.8c1.4-1.4 2.1-3.2 2.1-5 2.9 2.2 6 4 9.3 5.4-1.5 0.9-2.8 2.4-3.3 4.2l-3.6 13.5c-1 3.7 1.2 7.6 5 8.6 3.7 1 7.6-1.2 8.6-5l3.6-13.5c0.5-1.9 0.2-3.7-0.7-5.3 1.8 0.2 3.6 0.4 5.4 0.4 1.8 0 3.6-0.1 5.3-0.4-0.9 1.5-1.2 3.4-0.7 5.3l3.6 13.5c1 3.7 4.8 6 8.6 5 3.7-1 6-4.8 5-8.6l-3.6-13.5c-0.5-1.9-1.7-3.3-3.2-4.2 3.3-1.4 6.5-3.2 9.3-5.4 0 1.8 0.7 3.6 2.1 4.9l9.8 9.8c2.7 2.7 7.2 2.7 9.9 0s2.7-7.2 0-9.9l-9.8-9.8c-1.4-1.4-3.1-2-4.9-2 2.2-2.8 4-5.9 5.4-9.3 0.9 1.5 2.3 2.6 4.1 3.1l13.5 3.7c3.7 1 7.6-1.2 8.6-4.9s-1.2-7.6-4.9-8.6l-13.5-3.7c-0.6-0.2-1.2-0.2-1.8-0.2-1.2 0-2.3 0.3-3.4 0.9 0.2-1.7 0.4-3.5 0.4-5.3 0-1.8-0.1-3.5-0.4-5.3 1.5 0.8 3.4 1.1 5.2 0.6l13.5-3.6c3.5-0.8 5.8-4.7 4.8-8.4zM265.7 450c-2.8 0-5.6-0.3-8.3-0.9a43.62 43.62 0 0 1-41.6 30.3c-23.4 0-42.5-18.5-43.6-41.6-15.1-2.6-26.6-15.7-26.6-31.5 0-17.6 14.4-32 32-32h45.5c3.9 0 7 3.1 7 7 0 0.6-0.1 1.2-0.2 1.8l57.4 15.1c0.5-2 2-3.8 4-4.7 3.6-1.5 7.7 0.2 9.2 3.7 2 4.8 3 9.9 3 15 0 20.8-17 37.8-37.8 37.8zM288.7 406.5c-1 0-1.9-0.1-2.9-0.2-4.3 10.2-14.5 17.3-26.1 17.3-14.4 0-26.3-10.8-28.1-24.6-9-2.6-15.5-10.9-15.5-20.7 0-11.9 9.6-21.5 21.5-21.5h51.2c13.7 0 24.9 11.2 24.9 25-0.1 13.6-11.4 24.7-25 24.7zM456.4 286m-14.6 0a14.6 14.6 0 1 1 29.2 0 14.6 14.6 0 1 1-29.2 0ZM580 139.9c-14.8-20.6-38.8-32.9-64-32.9-1.8 0-3.6 0.1-5.4 0.2C469.5 110 437 144.3 437 186v9c0 41.8 32.6 76.1 73.6 78.8 1.8 0.1 3.5 0.2 5.4 0.2 25.6 0 49.8-12.6 64.6-33.7 6.4-9 4.2-21.5-4.8-27.9-9-6.4-21.5-4.2-27.9 4.8-7.4 10.5-19.3 16.7-31.9 16.7-1.8 0-3.6-0.1-5.4-0.4-19-2.6-33.6-18.9-33.6-38.6v-9c0-19.7 14.7-36 33.6-38.6 1.8-0.2 3.5-0.4 5.4-0.4 12.4 0 24.2 6.1 31.6 16.3 6.4 9 18.9 11 27.9 4.6 8.8-6.4 10.9-18.9 4.5-27.9zM735.9 286m-14.6 0a14.6 14.6 0 1 1 29.2 0 14.6 14.6 0 1 1-29.2 0ZM859.4 139.9c-14.9-20.6-38.9-32.9-64.1-32.9-43.6 0-79 35.4-79 79v9c0 43.6 35.4 79 79 79 25.6 0 49.8-12.6 64.7-33.7 6.4-9 4.2-21.5-4.8-27.9-9-6.4-21.5-4.2-27.9 4.8-7.4 10.5-19.3 16.7-32 16.7-21.5 0-39-17.5-39-39v-9c0-21.5 17.5-39 39-39 12.6 0 24.2 6 31.7 16.3 6.5 8.9 19 10.9 27.9 4.4 9-6.3 11-18.8 4.5-27.7zM177.1 286m-14.6 0a14.6 14.6 0 1 1 29.2 0 14.6 14.6 0 1 1-29.2 0ZM236.5 107c-43.6 0-79 35.4-79 79v9c0 43.6 35.4 79 79 79 25.6 0 49.8-12.6 64.7-33.7 6.4-9 4.2-21.5-4.8-27.9-9-6.4-21.5-4.2-27.9 4.8-7.4 10.5-19.3 16.7-31.9 16.7-21.5 0-39-17.5-39-39v-9c0-21.5 17.5-39 39-39 12.4 0 24.2 6.1 31.6 16.3 6.4 9 18.9 11 27.9 4.6s11-18.9 4.6-27.9c-15-20.6-38.9-32.9-64.2-32.9zM862.1 387.1c0-20.1-16.4-36.5-36.5-36.5H741.4c-17 0-30.9 13.9-30.9 30.9 0 15.2 11 27.8 25.4 30.4 1.2 21.5 18.6 38.8 40.2 39.8h1.9c18.5 0 34.4-12 39.9-29 2.6 0.6 5.2 0.8 7.8 0.8 14.2 0 26.6-8.2 32.6-20.1 2.4-4.8 3.8-10.4 3.8-16.3zM654.5 567v-523H842c49.5 0 90 40.5 90 90V567H654.5z m140.8-420c12.6 0 24.2 6 31.7 16.3 6.5 8.9 19 10.9 27.9 4.4 8.9-6.5 10.9-19 4.5-27.9-14.9-20.6-38.9-32.9-64.1-32.9-43.6 0-79 35.4-79 79v9c0 43.6 35.4 79 79 79 25.6 0 49.8-12.6 64.7-33.7 6.4-9 4.2-21.5-4.8-27.9-9-6.4-21.5-4.2-27.9 4.8-7.4 10.5-19.3 16.7-32 16.7-21.5 0-39-17.5-39-39v-9c0-21.3 17.5-38.8 39-38.8z m-74 139c0 8.1 6.5 14.6 14.6 14.6s14.6-6.5 14.6-14.6-6.5-14.6-14.6-14.6-14.6 6.5-14.6 14.6zM855 422.2c0-1.8-0.1-3.5-0.4-5.3 1.5 0.8 3.4 1.1 5.2 0.6l13.5-3.6c3.7-1 6-4.8 5-8.6-0.8-3.1-3.7-5.2-6.8-5.2-0.6 0-1.2 0.1-1.8 0.2l-11.5 3.1c2.5-4.9 3.9-10.5 3.9-16.4 0-20.1-16.4-36.5-36.5-36.5H741.4c-17 0-30.9 13.9-30.9 30.9 0 15.2 11 27.8 25.4 30.4 1.2 21.5 18.6 38.8 40.2 39.8l-6.7 6.7c-2.8 2.7-2.8 7.1-0.1 9.9 2.7 2.8 7.2 2.8 9.9 0.1l9.9-9.8c1.4-1.4 2.1-3.2 2.1-5 2.9 2.2 6 4 9.3 5.4-1.5 0.9-2.8 2.4-3.3 4.2l-3.6 13.5c-1 3.7 1.2 7.6 5 8.6 3.7 1 7.6-1.2 8.6-5l3.6-13.5c0.5-1.9 0.2-3.7-0.7-5.3 1.8 0.2 3.6 0.4 5.4 0.4 1.8 0 3.6-0.1 5.3-0.4-0.9 1.5-1.2 3.4-0.7 5.3l3.6 13.5c1 3.7 4.8 6 8.6 5 3.7-1 6-4.8 5-8.6l-3.6-13.5c-0.5-1.9-1.7-3.3-3.2-4.2 3.3-1.4 6.5-3.2 9.3-5.4 0 1.8 0.7 3.6 2.1 4.9l9.8 9.8c2.7 2.7 7.2 2.7 9.9 0s2.7-7.2 0-9.9l-9.8-9.8c-1.4-1.4-3.1-2-4.9-2 2.2-2.8 4-5.9 5.4-9.3 0.9 1.5 2.3 2.6 4.1 3.1l13.5 3.7c3.7 1 7.6-1.2 8.6-4.9s-1.2-7.6-4.9-8.6l-13.5-3.7c-0.6-0.2-1.2-0.2-1.8-0.2-1.2 0-2.3 0.3-3.4 0.9 0-1.8 0.1-3.5 0.1-5.3zM733.581051 271.586965a14.6 14.6 0 1 1 4.678089 28.822829 14.6 14.6 0 1 1-4.678089-28.822829ZM756.3 195v-9c0-21.5 17.5-39 39-39 12.6 0 24.2 6 31.7 16.3 6.5 8.9 19 10.9 27.9 4.4 8.9-6.5 10.9-19 4.5-27.9-14.9-20.6-38.9-32.9-64.1-32.9-43.6 0-79 35.4-79 79v9c0 43.6 35.4 79 79 79 25.6 0 49.8-12.6 64.7-33.7 6.4-9 4.2-21.5-4.8-27.9-9-6.4-21.5-4.2-27.9 4.8-7.4 10.5-19.3 16.7-32 16.7-21.5 0.2-39-17.3-39-38.8zM510.5 567v-108h1.5c22.6 0 41-18.4 41-41s-18.4-41-41-41h-1.5v-103.2c1.8 0.1 3.5 0.2 5.4 0.2 25.6 0 49.8-12.6 64.6-33.7 6.4-9 4.2-21.5-4.8-27.9-9-6.4-21.5-4.2-27.9 4.8-7.4 10.5-19.3 16.7-31.9 16.7-1.8 0-3.6-0.1-5.4-0.4v-86.3c1.8-0.2 3.5-0.4 5.4-0.4 12.4 0 24.2 6.1 31.6 16.3 6.4 9 18.9 11 27.9 4.6s11-18.9 4.6-27.9c-14.8-20.6-38.8-32.9-64-32.9-1.8 0-3.6 0.1-5.4 0.2V44h144V567H510.5z m27.1-80.8l-4.5-16.8c-0.8-3.1-3.7-5.2-6.8-5.2-0.6 0-1.2 0.1-1.8 0.2-3.7 1-6 4.8-5 8.6l4.5 16.8c1 3.7 4.8 6 8.6 5s6-4.9 5-8.6z m-5-145c-0.6-0.2-1.2-0.2-1.8-0.2-3.1 0-5.9 2.1-6.8 5.2l-4.5 16.8c-1 3.7 1.2 7.6 5 8.6 3.7 1 7.6-1.2 8.6-5l4.5-16.8c1-3.7-1.3-7.6-5-8.6z m18.3 108.7c-1.8 0-3.6 0.7-5 2-2.7 2.7-2.7 7.2 0 9.9l12.3 12.3c2.7 2.7 7.2 2.7 9.9 0s2.7-7.2 0-9.9L555.8 452c-1.3-1.4-3.1-2.1-4.9-2.1z m17.3-88.1c-1.4-1.4-3.2-2-5-2-1.8 0-3.6 0.7-5 2L546 374.2c-2.7 2.7-2.7 7.2 0 9.9s7.2 2.7 9.9 0l12.3-12.3c2.7-2.8 2.7-7.2 0-10z m20.6 35.6c-0.8-3.1-3.7-5.2-6.8-5.2-0.6 0-1.2 0.1-1.8 0.2l-16.8 4.5c-3.7 1-6 4.8-5 8.6 1 3.7 4.8 6 8.6 5l16.8-4.5c3.7-1 6-4.9 5-8.6z m-5 32.6l-16.8-4.5c-0.6-0.2-1.2-0.2-1.8-0.2-3.1 0-5.9 2.1-6.8 5.2-1 3.7 1.2 7.6 5 8.6l16.8 4.5c3.7 1 7.6-1.2 8.6-5 1-3.7-1.3-7.6-5-8.6zM533.1 366.6l4.5-16.8c1-3.7-1.2-7.6-5-8.6-0.6-0.2-1.2-0.2-1.8-0.2-3.1 0-5.9 2.1-6.8 5.2l-4.5 16.8c-1 3.7 1.2 7.6 5 8.6 3.7 1 7.6-1.3 8.6-5zM524.5 464.4c-3.7 1-6 4.8-5 8.6l4.5 16.8c1 3.7 4.8 6 8.6 5s6-4.8 5-8.6l-4.5-16.8c-0.8-3.1-3.7-5.2-6.8-5.2-0.6 0-1.2 0.1-1.8 0.2zM512 377h-1.5v82h1.5c22.6 0 41-18.4 41-41s-18.4-41-41-41zM555.8 384l12.3-12.3c2.7-2.7 2.7-7.2 0-9.9-1.4-1.4-3.2-2-5-2-1.8 0-3.6 0.7-5 2L546 374.2c-2.7 2.7-2.7 7.2 0 9.9s7.1 2.7 9.8-0.1zM568.2 474.2c2.7-2.7 2.7-7.2 0-9.9L555.8 452c-1.4-1.4-3.2-2-4.9-2-1.8 0-3.6 0.7-5 2-2.7 2.7-2.7 7.2 0 9.9l12.3 12.3c2.8 2.7 7.2 2.7 10 0zM515.9 107c-1.8 0-3.6 0.1-5.4 0.2v40.2c1.8-0.2 3.5-0.4 5.4-0.4 12.4 0 24.2 6.1 31.6 16.3 6.4 9 18.9 11 27.9 4.6s11-18.9 4.6-27.9c-14.9-20.7-38.8-33-64.1-33zM515.9 234c-1.8 0-3.6-0.1-5.4-0.4v40.2c1.8 0.1 3.5 0.2 5.4 0.2 25.6 0 49.8-12.6 64.6-33.7 6.4-9 4.2-21.5-4.8-27.9-9-6.4-21.5-4.2-27.9 4.8-7.3 10.6-19.3 16.8-31.9 16.8zM580.2 392.4l-16.8 4.5c-3.7 1-6 4.8-5 8.6 1 3.7 4.8 6 8.6 5l16.8-4.5c3.7-1 6-4.8 5-8.6-0.8-3.1-3.7-5.2-6.8-5.2-0.6 0-1.2 0.1-1.8 0.2zM583.8 430l-16.8-4.5c-0.6-0.2-1.2-0.2-1.8-0.2-3.1 0-5.9 2.1-6.8 5.2-1 3.7 1.2 7.6 5 8.6l16.8 4.5c3.7 1 7.6-1.2 8.6-5 1-3.7-1.3-7.6-5-8.6zM932 612v-45H510.5v74.1c0.5 0 1-0.1 1.5-0.1 11 0 20 9 20 20v41h90v-41c0-11 9-20 20-20s20 9 20 20v41h90v-41c0-11 9-20 20-20s20 9 20 20v41h50c49.5 0 90-40.5 90-90zM532 741v-80c0-11-9-20-20-20-0.5 0-1 0-1.5 0.1V760.9c0.5 0 1 0.1 1.5 0.1 11 0 20-9 20-20zM662 741v-80c0-11-9-20-20-20s-20 9-20 20v80c0 11 9 20 20 20s20-9 20-20zM792 741v-80c0-11-9-20-20-20s-20 9-20 20v80c0 11 9 20 20 20s20-9 20-20z"  horiz-adv-x="1024" />

    
    <glyph glyph-name="mianxingxueren" unicode="&#58955;" d="M512.5 86.2V-36H147.2s-60.7 72.1 14.3 85c75 12.8 67.9 66.4 94.7 77.8 8.6 3.7 18.2 8.8 28.8 13.4 22.6 9.7 50 17.1 82.8 3 48.2-20.7 45.5-27.8 96.4-46.4 14.8-5.4 31.1-8.8 48.3-10.6zM360.5 225.5c-4.8 0-9.6 1.7-13.4 5.2L110.2 445.1c-8.2 7.4-8.8 20.1-1.4 28.2 7.4 8.2 20.1 8.8 28.2 1.4l236.9-214.4c8.2-7.4 8.8-20.1 1.4-28.2-3.9-4.4-9.4-6.6-14.8-6.6zM198.5 372.1c-0.6 0-1.3 0-1.9 0.1-11 1-19.1 10.8-18 21.8l8.8 92.2c1 11 10.8 19.1 21.8 18 11-1 19.1-10.8 18-21.8l-8.8-92.2c-1-10.3-9.7-18.1-19.9-18.1zM242.3 319.1h-84.8c-11 0-20 9-20 20s9 20 20 20h84.8c11 0 20-9 20-20s-9-20-20-20zM512.5 432.4V-36h-0.5c-109.3 0-201.1 74.9-227 176.2-4.7 18.5-7.2 38-7.2 58 0 28.8 5.2 56.4 14.7 81.9 4.9 13.2 11 25.7 18 37.6 13.1 22.1 29.8 41.8 49.2 58.5 14 12 29.5 22.4 46.1 30.9 31.8 16.2 67.9 25.4 106.1 25.4h0.6zM624.5 612h-112v50.3c-16.8 0-33-2.8-48.1-7.9-4.2-1.4-8.3-3-12.3-4.8-6.9-3-13.5-6.6-19.8-10.6-11.8-7.5-22.5-16.6-31.7-27-23.6-26.5-37.9-61.4-37.9-99.6 0-27.5 7.4-53.3 20.4-75.5C389.3 426 397 416 405.9 407c7.5-7.6 15.8-14.4 24.8-20.2 8.9-5.8 18.4-10.7 28.4-14.5 16.6-6.3 34.6-9.8 53.5-9.8v76.2h116.9c4.4 0 8.5-0.7 12.5-2 13 22.2 20.5 48.1 20.5 75.8-0.1 38.1-14.4 73-38 99.5z m-112-139.4V533c16.5-0.3 29.7-13.7 29.7-30.2s-13.2-29.9-29.7-30.2z m48.8 64.7c-7.9 0-14.3 6.4-14.3 14.3s6.4 14.3 14.3 14.3 14.3-6.4 14.3-14.3-6.4-14.3-14.3-14.3zM627.4 770.6l-11.9-92.4-3-23.8h-1.4l4.4 34.4h-103V639h-99l-2 15.4-3 23.8-11.9 92.4C394.3 788.3 408.1 804 426 804h172c17.9 0 31.7-15.7 29.4-33.4zM512.5 688.8v-39.2h-99l-0.6 4.8-4.4 34.4zM512.5 654.4V612H339.1c-11 0-20 9-20 20v2.4c0 11 9 20 20 20h173.4zM432.3 204.5h-3.8c-17.6 0-32 14.4-32 32V354.8c0 17.6 14.4 32 32 32h3.8c17.6 0 32-14.4 32-32v-118.3c0-17.6-14.4-32-32-32zM512.5 438.7V355H394.7c-15.1 0-28.3 8.6-35 21.2-2.9 5.5-4.5 11.7-4.5 18.3v4.7c0 17.6 11.7 32.7 27.8 37.7 3.7 1.2 7.7 1.8 11.7 1.8h117.8zM512.5 296.4V236h-0.5c-16.7 0-30.2 13.5-30.2 30.2s13.5 30.2 30.2 30.2h0.5zM512.5 192.2v-60.4h-0.5c-16.7 0-30.2 13.5-30.2 30.2s13.5 30.2 30.2 30.2h0.5zM462.7 551.6m-14.3 0a14.3 14.3 0 1 1 28.6 0 14.3 14.3 0 1 1-28.6 0ZM512.5 533v-60.4h-0.5c-16.7 0-30.2 13.5-30.2 30.2S495.3 533 512 533h0.5zM668.9 399.2v-4.7c0-6.6-1.7-12.9-4.6-18.4-6.7-12.5-19.8-21.1-35-21.1H512.5v83.7h116.9c4.4 0 8.5-0.7 12.5-2 15.6-5.3 27-20.2 27-37.5zM704.8 634.4v-2.4c0.1-11-8.9-20-19.9-20H512.5v42.4h172.3c11 0 20-9 20-20zM616.9 688.8l-4.4-34.4h-100v34.4zM615.5 688.8h-103V804H598c17.9 0 31.7-15.7 29.4-33.4l-10.5-81.8h-1.4zM548.091518 546.138566a14.3 14.3 0 1 1 26.422955 10.944746 14.3 14.3 0 1 1-26.422955-10.944746ZM624.5 612h-112v-79c16.5-0.3 29.7-13.7 29.7-30.2s-13.2-29.9-29.7-30.2v-33.9h116.9c4.4 0 8.5-0.7 12.5-2 13 22.2 20.5 48.1 20.5 75.8 0 38.1-14.3 73-37.9 99.5z m-63.2-74.7c-7.9 0-14.3 6.4-14.3 14.3s6.4 14.3 14.3 14.3 14.3-6.4 14.3-14.3-6.4-14.3-14.3-14.3zM542.2 502.8c0-16.5-13.2-29.9-29.7-30.2V533c16.5-0.3 29.7-13.7 29.7-30.2zM746.2 198.2c0-29.8-5.6-58.4-15.7-84.6-33.9-87.4-118.7-149.4-218-149.6V131.8c16.5 0.3 29.7 13.7 29.7 30.2s-13.2 29.9-29.7 30.2V236c16.5 0.3 29.7 13.7 29.7 30.2s-13.2 29.9-29.7 30.2V355h116.8c15.2 0 28.3 8.6 35 21.1 19.4-16.6 36.1-36.4 49.2-58.4 7.1-11.9 13.1-24.5 18-37.6 9.5-25.5 14.7-53.1 14.7-81.9zM542.2 162c0-16.5-13.2-29.9-29.7-30.2v60.4c16.5-0.3 29.7-13.7 29.7-30.2zM542.2 266.2c0-16.5-13.2-29.9-29.7-30.2v60.4c16.5-0.3 29.7-13.7 29.7-30.2zM899.9-3.8V-36H512.5c99.3 0.2 184.1 62.2 218 149.6 1.4-0.6 2.8-1.2 4.3-1.8 64.3-27.1 63.4-18.6 83-37.1s22.3-12.1 36.6-32.8c14.3-20.7 45.5-45.7 45.5-45.7zM838.4 376.8l-19.5-17.7h47.7c11 0 20-8.9 20-20 0-11-9-20-20-20h-84.8c-2.1 0-4.1 0.3-6 0.9l-44.2-40c-4.9 13.2-11 25.7-18 37.6l91.2 82.5-7.8 82.2c-1 11 7 20.8 18 21.8s20.8-7 21.8-18l5-52.5 45.4 41c8.2 7.4 20.8 6.8 28.2-1.4 7.4-8.2 6.8-20.8-1.4-28.2l-74.5-67.5-0.7-0.6c-0.3 0-0.3 0-0.4-0.1z"  horiz-adv-x="1024" />

    
    <glyph glyph-name="mianxingyangsha" unicode="&#58956;" d="M288.3 470.1m-53.2 0a53.2 53.2 0 1 1 106.4 0 53.2 53.2 0 1 1-106.4 0ZM152.5 616.2m-53.2 0a53.2 53.2 0 1 1 106.4 0 53.2 53.2 0 1 1-106.4 0ZM792.7 712.5m-53.2 0a53.2 53.2 0 1 1 106.4 0 53.2 53.2 0 1 1-106.4 0ZM500.7 2.5m-53.2 0a53.2 53.2 0 1 1 106.4 0 53.2 53.2 0 1 1-106.4 0ZM152.5 102m-53.2 0a53.2 53.2 0 1 1 106.4 0 53.2 53.2 0 1 1-106.4 0ZM753 185c0-29.3-23.9-53.2-53.2-53.2s-53.2 23.9-53.2 53.2 23.9 53.2 53.2 53.2h0.1c29.3-0.2 53.1-24 53.1-53.2zM824.003175-33.417702a53.2 53.2 0 1 1 17.046187 105.025652 53.2 53.2 0 1 1-17.046187-105.025652ZM553.9 765.5c0-29.3-23.9-53.2-53.2-53.2s-53.2 23.9-53.2 53.2 23.9 53.2 53.2 53.2h0.1c29.3-0.2 53.1-24 53.1-53.2zM952 301.1c0-29.3-23.9-53.2-53.2-53.2s-53.2 23.9-53.2 53.2c0 29.3 23.9 53.2 53.2 53.2h0.1c29.3-0.2 53.1-24 53.1-53.2zM875.2 429.9c-4.2-4.9-70.1-81.4-199.1-145.5-55.4-27.5-114.1-48.6-175.4-62.9-23.2-5.4-46.8-9.9-70.7-13.4-42.6-6.1-86.1-9.2-130.5-9.2-68.7 0-139.5 7.4-211.5 22.3-10.8 2.2-17.8 12.8-15.5 23.6 2.2 10.8 12.8 17.8 23.6 15.5 113.5-23.4 223.4-27.7 326.8-12.8 26.4 3.8 52.3 8.8 77.8 15.1C555 276 607.2 295 656.5 319.4c123.7 61 187.6 135.7 188.2 136.4 0.1 0.1 0.1 0.2 0.2 0.2 28.8 33.1 25.3 83.4-7.8 112.2-33.1 28.8-83.4 25.3-112.2-7.8-15.1-17.3-21.9-40.4-18.7-63.3 1.6-10.9-6.1-21.1-17-22.6-10.9-1.6-21.1 6.1-22.6 17-4.9 34.4 5.4 69.1 28.1 95.2 43.2 49.7 118.9 55 168.6 11.7 49.7-43.2 55-118.8 11.9-168.5zM602.4 449.9c-8.1-30.2-27.3-55.5-54-71.5-5.1-4.2-20.1-15.2-47.7-26.8-40.2-17-107.4-35.2-210.3-35.2-49.5 0-107.2 4.2-174.2 14.8-10.9 1.7-18.4 12-16.6 22.9 1.7 10.9 12 18.4 22.9 16.6C279.1 346 380 358 437 372.5c28.9 7.3 49.8 16 63.7 23.1 14.8 7.6 21.8 13.4 22.6 14.1 1.1 1.1 2.1 1.7 3.5 2.5 18.4 10.6 31.5 27.7 37 48.2s2.7 42-7.9 60.4c-10.6 18.4-27.7 31.5-48.2 37-2.3 0.6-4.7 1.1-7 1.5-18.3 3.2-37.1 0-53.4-9.4-19.9-11.4-33.8-30.9-38.3-53.5-2.2-10.8-12.7-17.9-23.5-15.7s-17.9 12.7-15.7 23.5c6.7 33.9 27.7 63.2 57.5 80.3 22.5 13 48 18.2 73.4 15.2 5.8-0.7 11.6-1.8 17.3-3.3 30.8-8.3 56.6-28.1 72.5-55.7 16-27.6 20.2-59.9 11.9-90.8zM553.9 2.5c0-29.3-23.9-53.2-53.2-53.2V55.7c29.3 0 53.2-23.9 53.2-53.2zM500.7 712.3V818.7h0.1c29.3-0.2 53.1-24 53.1-53.2 0-29.3-23.9-53.2-53.2-53.2zM602.4 449.9c-8.1-30.2-27.3-55.5-54-71.5-5.1-4.2-20.1-15.2-47.7-26.8v44.1c14.8 7.6 21.8 13.4 22.6 14.1 1.1 1.1 2.1 1.7 3.5 2.5 18.4 10.6 31.5 27.7 37 48.2s2.7 42-7.9 60.4c-10.6 18.4-27.7 31.5-48.2 37-2.3 0.6-4.7 1.1-7 1.5v40.4c5.8-0.7 11.6-1.8 17.3-3.3 30.8-8.3 56.6-28.1 72.5-55.7 16-27.7 20.2-60 11.9-90.9zM753 185c0-29.3-23.9-53.2-53.2-53.2s-53.2 23.9-53.2 53.2 23.9 53.2 53.2 53.2h0.1c29.3-0.2 53.1-24 53.1-53.2zM792.7 712.5m-53.2 0a53.2 53.2 0 1 1 106.4 0 53.2 53.2 0 1 1-106.4 0ZM824.003175-33.417702a53.2 53.2 0 1 1 17.046187 105.025652 53.2 53.2 0 1 1-17.046187-105.025652ZM676.1 284.4c-55.4-27.5-114.1-48.6-175.4-62.9v41.1C555 276 607.2 295 656.5 319.4c123.7 61 187.6 135.7 188.2 136.4 0.1 0.1 0.1 0.2 0.2 0.2 28.8 33.1 25.3 83.4-7.8 112.2-33.1 28.8-83.4 25.3-112.2-7.8-15.1-17.3-21.9-40.4-18.7-63.3 1.6-10.9-6.1-21.1-17-22.6-10.9-1.6-21.1 6.1-22.6 17-4.9 34.4 5.4 69.1 28.1 95.2 43.2 49.7 118.9 55 168.6 11.7 49.7-43.2 55-118.8 11.9-168.5-4.2-4.9-70.1-81.4-199.1-145.5zM952 301.1c0-29.3-23.9-53.2-53.2-53.2s-53.2 23.9-53.2 53.2c0 29.3 23.9 53.2 53.2 53.2h0.1c29.3-0.2 53.1-24 53.1-53.2z"  horiz-adv-x="1024" />

    
    <glyph glyph-name="mianxingcaihong" unicode="&#58945;" d="M505.2 774.2v-231.7c-31.5 0-61.3-12.5-84-35.2-22.7-22.7-35.2-52.5-35.2-84v-94.6l1.2-0.3c1-0.3 2-0.6 3-1 0.4-0.1 0.8-0.3 1.1-0.4l2.1-0.9c0.7-0.3 1.3-0.6 1.9-0.8 0.5-0.3 1.1-0.5 1.6-0.8 0.1 0 0.1-0.1 0.2-0.1 0.4-0.2 0.8-0.4 1.1-0.6 0.3-0.2 0.7-0.4 1-0.6 0.2-0.1 0.5-0.2 0.7-0.4 0.4-0.2 0.8-0.5 1.2-0.7 0.2-0.2 0.5-0.3 0.7-0.5 0.4-0.2 0.7-0.5 1.1-0.7 0.4-0.2 0.7-0.5 1.1-0.7 0.2-0.1 0.3-0.2 0.5-0.3l1.2-0.9c0.2-0.2 0.4-0.3 0.6-0.5 0.3-0.2 0.7-0.5 1-0.8 0.3-0.2 0.6-0.5 0.9-0.7 0.2-0.2 0.5-0.4 0.7-0.6 0.4-0.3 0.8-0.7 1.2-1.1 0.1-0.1 0.2-0.1 0.2-0.2 0.4-0.4 0.9-0.8 1.3-1.3l0.3-0.3 1.4-1.4c0.1-0.1 0.1-0.1 0.1-0.2 0.4-0.4 0.8-0.8 1.1-1.3 0.2-0.2 0.3-0.4 0.5-0.6 0.5-0.5 0.9-1.1 1.3-1.6s0.9-1.1 1.3-1.7c0.4-0.6 0.9-1.2 1.3-1.9 0.2-0.3 0.4-0.7 0.7-1 0.1-0.2 0.2-0.4 0.4-0.6l0.3-0.6c0.2-0.3 0.3-0.6 0.5-0.8 0.1-0.2 0.3-0.5 0.4-0.7 0.1-0.1 0.1-0.2 0.2-0.3 0.2-0.3 0.4-0.7 0.5-1 0.2-0.5 0.5-0.9 0.7-1.4 0.2-0.3 0.3-0.6 0.4-0.9 0.1-0.3 0.3-0.6 0.4-0.9 0.2-0.5 0.5-1 0.7-1.5 0-0.1 0.1-0.2 0.1-0.2l0.6-1.5c0-0.1 0.1-0.2 0.1-0.2 0.1-0.2 0.1-0.3 0.2-0.5l0.3-0.9c0.1-0.1 0.1-0.3 0.2-0.5l0.3-0.9c0.1-0.2 0.2-0.5 0.2-0.7 0.1-0.2 0.2-0.5 0.2-0.7 0-0.1 0.1-0.3 0.1-0.4 0.1-0.2 0.1-0.4 0.2-0.5v-0.1c0.1-0.4 0.2-0.7 0.3-1 0.1-0.5 0.3-1.1 0.4-1.6 0-0.2 0.1-0.3 0.1-0.5s0.1-0.3 0.1-0.5c0.1-0.6 0.3-1.3 0.4-1.9 0.1-0.5 0.2-0.9 0.2-1.4 0.1-0.4 0.1-0.7 0.2-1.1v-0.4c0-0.2 0-0.4 0.1-0.5v-0.8c0-0.2 0-0.4 0.1-0.7v-0.5c0-0.3 0-0.6 0.1-0.9 0-0.6 0.1-1.2 0.1-1.9v-1.9c0-26.9-18.2-49.6-43-56.4-4.9-1.4-10.1-2.1-15.4-2.1-1.2 0-2.3 0.1-3.4 0.2v-0.2H167.7v0.1c-1.1-0.1-2.3-0.2-3.4-0.2-3.4 0-6.7 0.2-9.9 0.7V423.3c0 192.9 157.8 350.8 350.8 350.9zM505.2 697v-154.5c-31.5 0-61.3-12.5-84-35.2-22.7-22.7-35.2-52.5-35.2-84v-94.6l1.2-0.3c1-0.3 2-0.6 3-1 0.4-0.1 0.8-0.3 1.1-0.4 10.7-4.1 19.9-11.2 26.5-20.3 0.4-0.6 0.9-1.2 1.3-1.9 0.2-0.3 0.4-0.7 0.7-1 0.2-0.4 0.5-0.7 0.7-1.1 0.2-0.3 0.3-0.6 0.5-0.8 0.4-0.7 0.8-1.3 1.1-2 0.2-0.5 0.5-0.9 0.7-1.4l0.9-1.8c0.3-0.5 0.5-1.1 0.7-1.7 0.5-1.2 1-2.4 1.4-3.7l0.3-0.9c0.1-0.2 0.2-0.5 0.2-0.7 0.1-0.2 0.2-0.5 0.2-0.7 0-0.1 0-0.2 0.1-0.2 0.2-0.6 0.4-1.2 0.5-1.9 0.1-0.5 0.3-1.1 0.4-1.6 0.1-0.3 0.1-0.6 0.2-1 0.5-2.2 0.8-4.4 1-6.7v-0.7c0-0.3 0-0.6 0.1-0.9 0-0.6 0.1-1.2 0.1-1.9v-1.9c0-26.9-18.2-49.6-43-56.4-4.9-1.4-10.1-2.1-15.4-2.1-1.2 0-2.3 0.1-3.4 0.2v-0.2H231.5V423.3c0 72.7 28.6 141.3 80.5 193.2 51.9 51.9 120.5 80.5 193.2 80.5zM386 423.3v-94.6l1.2-0.3c1-0.3 2-0.6 3-1 0.4-0.1 0.8-0.3 1.1-0.4 11.4-4.3 21.1-12.1 27.8-22.1 0.2-0.3 0.4-0.7 0.7-1 0.4-0.7 0.8-1.3 1.2-2 0.4-0.7 0.8-1.3 1.1-2 0.2-0.5 0.5-0.9 0.7-1.4 0.6-1.2 1.1-2.4 1.7-3.6l0.4-1c0.5-1.3 1-2.7 1.5-4.1 0.1-0.2 0.2-0.5 0.2-0.7l0.6-2.1c0.1-0.5 0.3-1.1 0.4-1.6 0.2-0.6 0.3-1.3 0.4-1.9 0.2-0.8 0.3-1.6 0.4-2.4 0.1-0.7 0.2-1.3 0.3-2 0.1-0.7 0.1-1.3 0.2-2 0-0.3 0-0.6 0.1-0.9 0-0.6 0.1-1.2 0.1-1.9v-1.9c0-26.9-18.2-49.6-43-56.4-4.9-1.4-10.1-2.1-15.4-2.1-1.2 0-2.3 0.1-3.4 0.2v-0.2h-58.4V423.3c0 52.1 20.5 101.3 57.8 138.6s86.5 57.8 138.6 57.8v-77.2c-31.5 0-61.3-12.5-84-35.2-22.8-22.7-35.3-52.5-35.3-84zM429 272.3c0-26.9-18.2-49.6-43-56.4V328.7c24.8-6.7 43-29.4 43-56.4zM624.3 103c-17.5-10.2-29.3-29-29.3-50.7 0-8.8 2-17.2 5.4-24.6v-0.1a58.5 58.5 0 0 0-5.5 24.8c0.1 21.6 11.9 40.5 29.4 50.6zM595 52.3c0-8.8 2-17.2 5.4-24.6v-0.1a58.5 58.5 0 0 0-5.5 24.8c0.1 21.6 11.9 40.5 29.4 50.6v-0.1C606.8 92.8 595 74 595 52.3zM701.6 423.3v-324.8c0-37.5-10.6-73.5-30.5-104.6h-14.2v0.1c-1.1-0.1-2.3-0.2-3.4-0.2-23.4 0-43.6 13.8-53 33.7 0 0 0 0.1-0.1 0.2 15.5 20.5 23.9 45.2 23.9 70.8v4.4s0.1 0 0.1 0.1V423.3c0 31.4-12.5 61.3-35.2 84s-52.5 35.2-84 35.2v77.2c52.1 0 101.3-20.5 138.6-57.8 37.2-37.3 57.8-86.5 57.8-138.6zM778.8 423.3v-324.8c0-36.4-7.2-71.8-20.9-104.6h-86.8C691 25 701.6 61 701.6 98.5V423.3c0 52.1-20.6 101.3-57.8 138.6-37.3 37.3-86.5 57.8-138.6 57.8V697c72.7 0 141.3-28.6 193.2-80.5 51.8-51.9 80.4-120.5 80.4-193.2zM856.1 423.3v-324.8c0-36.4-5.6-71.6-16-104.6h-82.2c13.7 32.8 20.9 68.2 20.9 104.6V423.3c0 72.7-28.6 141.3-80.4 193.2-51.9 51.9-120.5 80.5-193.2 80.5v77.2h0.1c96.5 0 184.2-39.5 247.8-103.1s103-151.3 103-247.8zM925 131.2c-17.4 17.4-40.6 27.1-65.2 27.1-5.8 0-11.5-0.5-17.1-1.6-14.7 41.4-54.2 70.4-99.9 70.4-55.8 0-101.6-43.3-105.7-98-35.5-7.5-62.2-39.1-62.2-76.8 0-43.3 35.2-78.5 78.5-78.5h206.3c50.8 0 92.2 41.4 92.2 92.2 0.1 24.6-9.5 47.8-26.9 65.2zM386.9 349.1c-4.1 54.7-49.9 98-105.7 98-45.7 0-85.2-29-99.9-70.4-5.6 1.1-11.4 1.6-17.1 1.6-24.7 0-47.8-9.6-65.2-27-17.4-17.5-27-40.7-26.9-65.3 0-50.8 41.4-92.2 92.2-92.2h206.3c43.3 0 78.5 35.2 78.5 78.5 0 37.7-26.7 69.3-62.2 76.8z"  horiz-adv-x="1024" />

    
    <glyph glyph-name="drag" unicode="&#59241;" d="M288 704a96 96 0 1 0 0 192 96 96 0 0 0 0-192z m0-277.312a96 96 0 1 0 0 192 96 96 0 0 0 0-192z m0-277.376a96 96 0 1 0 0 192 96 96 0 0 0 0-192zM288-128a96 96 0 1 0 0 192 96 96 0 0 0 0-192z m448 832a96 96 0 1 0 0 192 96 96 0 0 0 0-192z m0-277.312a96 96 0 1 0 0 192 96 96 0 0 0 0-192z m0-277.376a96 96 0 1 0 0 192 96 96 0 0 0 0-192z m0-277.312a96 96 0 1 0 0 192 96 96 0 0 0 0-192z"  horiz-adv-x="1024" />

    
    <glyph glyph-name="ellipsis-vertical" unicode="&#59242;" d="M512 640c70.4 0 128 57.6 128 128s-57.6 128-128 128-128-57.6-128-128 57.6-128 128-128z m0-128c-70.4 0-128-57.6-128-128s57.6-128 128-128 128 57.6 128 128-57.6 128-128 128z m0-384c-70.4 0-128-57.6-128-128s57.6-128 128-128 128 57.6 128 128-57.6 128-128 128z"  horiz-adv-x="1024" />

    
    <glyph glyph-name="gallery-view" unicode="&#59243;" d="M288 608.1279999999999V832H64v-224l224 0.128z m112-672h224V160h-224v-224z m-336 0h224V160H64v-224z m0 336h224v224H64v-224z m336 0h224v224h-224v-224z m336 336H960V832h-224v-223.872z m-112 0V832h-224v-224l224 0.128zM960 272.12800000000004v224h-224v-224H960z m0-336V160h-224v-224H960z"  horiz-adv-x="1024" />

    
    <glyph glyph-name="WIFI" unicode="&#59244;" d="M0 543.168l93.12-98.752c231.296 245.44 606.464 245.44 837.76 0L1024 543.168C741.44 842.944 283.008 842.944 0 543.168z m372.352-395.008L512 0l139.648 148.16c-76.8 81.92-202.048 81.92-279.296 0zM186.24 345.6l93.12-98.752c128.448 136.32 336.96 136.32 465.408 0L837.824 345.6c-179.648 190.592-471.488 190.592-651.648 0z"  horiz-adv-x="1024" />

    
    <glyph glyph-name="bug-report" unicode="&#59245;" d="M250.496 576h523.008l49.152 49.152 90.496-90.496L832 453.504V384h128v-128h-128v-6.464c0-38.016-6.592-74.432-18.752-108.224l99.84-99.968-90.432-90.496-78.464 78.464A319.488 319.488 0 0 0 576-64v188.16a64 64 0 1 1-128 0V-64a319.488 319.488 0 0 0-168.192 93.44l-78.464-78.528-90.496 90.496 99.904 99.968A319.424 319.424 0 0 0 192 249.536V256H64V384h128V453.504L110.848 534.656l90.496 90.496 49.152-49.152zM320 640a192 192 0 1 0 384 0H320z"  horiz-adv-x="1024" />

    
    <glyph glyph-name="qrcode" unicode="&#59246;" d="M85.312 810.688V512H384V810.688H85.312zM0 896h469.248v-469.248H0V896z m170.624-170.624h128v-128h-128v128zM0 341.376h469.248v-469.248H0V341.376z m85.312-85.312v-298.624H384V256.064H85.312z m85.312-85.312h128v-128h-128v128zM554.624 896h469.248v-469.248H554.624V896z m85.312-85.312V512h298.624V810.688H639.936z m383.936-682.56H1024v-85.376h-298.752V256.064H639.936V-127.872H554.624V341.376h255.936v-213.248h128V341.376h85.312v-213.248z m-298.624 597.248h128v-128h-128v128z m298.624-853.248h-85.312v85.312h85.312v-85.312z m-213.312 0h-85.312v85.312h85.312v-85.312z"  horiz-adv-x="1024" />

    
    <glyph glyph-name="scan" unicode="&#59247;" d="M885.312 10.688V272H960V-64H624v74.688h261.312zM64 10.688V272h74.688v-261.312H400V-64H64v74.688zM960 757.312V496h-74.688V757.312H624V832H960v-74.688z m-821.312 0V496H64V832h336v-74.688H138.688zM64 421.312h896v-74.624H64V421.312z"  horiz-adv-x="1024" />

    
    <glyph glyph-name="cut" unicode="&#59248;" d="M213.312 85.312h597.376V682.688H213.312v-597.376z m0-85.312v-128H128v128H0v85.312h128V768h682.688V896H896v-128h128v-85.312h-128V0H213.312z"  horiz-adv-x="1024" />

    
    <glyph glyph-name="gift" unicode="&#59249;" d="M983.038771 633.791048h-188.927764c17.407978 26.495967 27.647965 57.919928 27.647966 91.519885C821.758973 819.390816 742.527072 895.99872 645.119194 895.99872 592.12726 895.99872 544.38332 873.214748 511.99936 837.374793A179.071776 179.071776 0 0 1 378.879526 895.99872C281.471648 895.99872 202.239747 819.454816 202.239747 725.310933c0-33.599958 10.111987-65.023919 27.647966-91.519885H40.959949a40.25595 40.25595 0 0 1-40.959949-39.551951V346.879406c0-5.439993 4.607994-9.855988 10.239987-9.855987h51.199936v-425.471468c0-21.887973 18.303977-39.551951 40.959949-39.551951h819.198976c22.655972 0 40.959949 17.663978 40.959949 39.551951V337.023419h51.199936c5.631993 0 10.239987 4.479994 10.239987 9.855987V594.239097a40.25595 40.25595 0 0 1-40.959949 39.551951z m-427.519465 91.519885c0 47.74394 40.19195 86.591892 89.599888 86.591892 49.407938 0 89.599888-38.847951 89.599888-86.591892s-40.19195-86.527892-89.599888-86.527891h-89.599888V725.310933zM378.879526 811.902825c49.407938 0 89.599888-38.847951 89.599888-86.591892v-86.527891h-89.599888c-49.407938 0-89.599888 38.783952-89.599888 86.527891 0 47.74394 40.19195 86.591892 89.599888 86.591892zM87.039891 421.119314V549.759153h381.439523v-128.639839H87.039891z m61.439923-84.095895h319.9996v-380.927524h-319.9996V337.023419z m727.039092-380.927524h-319.9996V337.023419h319.9996v-380.927524z m61.439923 465.023419H555.519306V549.759153h381.439523v-128.639839z"  horiz-adv-x="1024" />

    
    <glyph glyph-name="link" unicode="&#59250;" d="M593.94368 180.352a10.688 10.688 0 0 1-14.976 0L424.21568 25.6c-71.68-71.68-192.576-79.232-271.68 0-79.232 79.232-71.616 200 0 271.616l154.752 154.752a10.688 10.688 0 0 1 0 15.04l-52.992 52.992a10.688 10.688 0 0 1-15.04 0L84.50368 365.312a287.872 287.872 0 0 1 0-407.488 288 288 0 0 1 407.488 0l154.752 154.752a10.688 10.688 0 0 1 0 15.04l-52.736 52.736z m344.384 631.168a288.256 288.256 0 0 0 0-407.616l-154.752-154.752a10.688 10.688 0 0 0-15.04 0l-52.992 52.992a10.688 10.688 0 0 0 0 15.104l154.752 154.688c71.68 71.68 79.232 192.448 0 271.68-79.104 79.232-200 71.68-271.68 0L443.92768 588.8a10.688 10.688 0 0 0-15.04 0l-52.864 52.864a10.688 10.688 0 0 0 0 15.04l154.88 154.752a287.872 287.872 0 0 0 407.424 0z m-296.32-240.896l52.672-52.736a10.688 10.688 0 0 0 0-15.04l-301.504-301.44a10.688 10.688 0 0 0-15.04 0l-52.736 52.672a10.688 10.688 0 0 0 0 15.04l301.632 301.504a10.688 10.688 0 0 0 15.04 0z"  horiz-adv-x="1024" />

    
    <glyph glyph-name="poweroff" unicode="&#59252;" d="M320 704v-106.432c-97.28-61.12-161.792-167.68-161.792-289.024 0-189.632 157.632-343.36 352-343.36 194.432 0 352 153.728 352 343.36 0 119.808-62.848 225.28-158.208 286.72V704c151.36-70.144 256-220.608 256-394.944C960 67.648 759.424-128 512-128s-448 195.648-448 437.056C64 483.392 168.64 633.856 320 704z m128 192h128v-448H448V896z"  horiz-adv-x="1024" />

    
    <glyph glyph-name="key" unicode="&#59253;" d="M443.25546667 409.25866667c-29.35466667 47.104-41.09653333 99.9424-41.09653334 158.72A291.0208 291.0208 0 0 0 695.97866667 861.86666667 291.0208 291.0208 0 0 0 989.86666667 567.9786666699999a291.0208 291.0208 0 0 0-293.888-293.81973334c-64.64853333 0-117.48693333 17.6128-170.3936 52.90666667l-135.168-135.168 64.64853333-64.7168-82.3296-82.26133333-64.64853333 64.64853333-41.09653334-41.1648 64.64853334-64.64853333-82.3296-82.26133334L102.4 68.40319999999997l340.85546667 340.92373333z m252.7232 335.0528c-99.87413333 0-176.26453333-76.45866667-176.26453334-176.3328s76.3904-176.26453333 176.26453334-176.26453334c99.9424 0 176.3328 76.3904 176.3328 176.26453334 0 99.9424-82.26133333 176.3328-176.3328 176.3328z"  horiz-adv-x="1024" />

    
    <glyph glyph-name="safety-certificate" unicode="&#59254;" d="M512 807.296L149.312 656.576v-225.088c0-54.528 9.536-107.328 28.672-158.72a516.48 516.48 0 0 1 202.24-253.696A460.8 460.8 0 0 1 512-40.256a460.928 460.928 0 0 1 131.712 59.2 517.504 517.504 0 0 1 202.304 253.76 451.52 451.52 0 0 1 28.672 158.72V656.576L512 807.296z m448-122.24v-253.568c0-64.64-11.328-127.424-33.92-188.352a602.368 602.368 0 0 0-235.52-295.36A548.544 548.544 0 0 0 512-128a548.416 548.416 0 0 0-178.56 75.776A601.664 601.664 0 0 0 97.92 243.2 536.192 536.192 0 0 0 64 431.488V684.992c0 17.28 10.368 32.768 26.24 39.36L495.68 892.672a42.752 42.752 0 0 0 32.768 0l405.312-168.32c15.936-6.592 26.304-22.144 26.304-39.36zM460.8 331.584L699.712 576 768 506.24 460.8 192 256 401.472l68.288 69.76L460.8 331.712z"  horiz-adv-x="1024" />

    
    <glyph glyph-name="supervise" unicode="&#59255;" d="M959.965003 672.961425v-238.189392a533.078353 533.078353 0 0 0-33.91735-187.697336 601.553004 601.553004 0 0 0-235.501602-294.313007A549.525068 549.525068 0 0 0 512-122.75241a549.397078 549.397078 0 0 0-178.546051 75.5141 600.913054 600.913054 0 0 0-235.501602 294.377002A532.630388 532.630388 0 0 0 64.034997 434.708038V672.961425a63.995 63.995 0 0 0 39.484916 59.13138l383.970002 158.963581a63.995 63.995 0 0 0 49.02017 0l383.970002-158.963581a63.995 63.995 0 0 0 39.484916-59.13138zM512 390.359503V800.119491L163.099258 654.658855V390.359503H512v-415.327552a414.495618 414.495618 0 0 1 128.949926 59.38736 491.801578 491.801578 0 0 1 103.6719 96.056496 513.943848 513.943848 0 0 1 116.278916 259.819701H512z"  horiz-adv-x="1024" />

    
    <glyph glyph-name="chart-pie-alt" unicode="&#59276;" d="M85.312 384a426.688 426.688 0 0 1 844.8-85.312H426.688V802.112A426.816 426.816 0 0 1 85.312 384zM512 896v-512h512a512 512 0 1 0-512 512z m506.816-438.848H585.152V890.816a512.32 512.32 0 0 0 433.664-433.664z"  horiz-adv-x="1024" />

    
    <glyph glyph-name="chart-relation" unicode="&#59277;" d="M403.520683 240.660288l-91.333603-68.819998a127.918212 127.918212 0 1 0-36.392732 52.638344l93.700091 70.610853a223.856872 223.856872 0 0 0 292.612911 296.130662l31.915593 71.634199a127.918212 127.918212 0 1 0 59.929683-22.641524l-36.776486-82.507247a223.409158 223.409158 0 0 0 81.164106-172.497709c0-55.772341-20.338996-106.747748-54.045445-145.890721l99.200574-122.545648a127.918212 127.918212 0 1 0-50.016021-39.846523l-97.409719 120.24312c-34.985631-22.641524-76.750927-35.817099-121.586261-35.8171a223.345199 223.345199 0 0 0-170.962691 79.309292z"  horiz-adv-x="1024" />

    
    <glyph glyph-name="chart-area" unicode="&#59279;" d="M85.504-42.688H1024V-128H0v85.312h0.192V896h85.312v-938.688zM128 172.672l212.736 271.552 303.424-155.52L990.912 640v-632.64H128v165.312z"  horiz-adv-x="1024" />

    
    <glyph glyph-name="chart-line" unicode="&#59280;" d="M85.504-42.688H1024V-128H0v85.312h0.192V896h85.312v-938.688z m120.256 169.984l-70.208 48.512L372.48 518.272l303.424-155.52 265.472 345.92 67.712-51.968-308.8-402.304-300.16 153.856-194.368-280.96z"  horiz-adv-x="1024" />

    
    <glyph glyph-name="chart-bar" unicode="&#59281;" d="M85.312-42.688H1024V-128H0V896h85.312v-938.688zM256 554.688h85.312V128H256V554.688zM512 768h85.312v-640H512V768z m256-213.312h85.312V128H768V554.688z"  horiz-adv-x="1024" />

    
    <glyph glyph-name="display-code" unicode="&#59282;" d="M85.312 731.2v-604.8h853.376v604.8H85.312zM682.688 25.6V-64H341.312v89.6H0V832h1024v-806.4h-341.312zM390.08 263.872L128 392.96V473.664l262.08 128.64V505.6L230.784 433.024l159.296-72.832v-96.32zM529.6 640H576l-82.048-413.184H448L529.6 640z m104.32-376.128V360.192l159.296 72.832-159.296 72.512V602.368L896 473.6v-80.768L633.92 263.872z"  horiz-adv-x="1024" />

    
    <glyph glyph-name="display-arrow-right" unicode="&#59283;" d="M85.312 731.2v-604.8h853.376v604.8H85.312zM682.688 25.6V-64H341.312v89.6H0V832h1024v-806.4h-341.312z m-64 454.4H192v-106.688h426.688v-160L832 426.688 618.688 640v-160z"  horiz-adv-x="1024" />

    


  </font>
</defs>
</svg>
